/* XPM */
static char *_decd4a2e42946a9cef22439f03a1ab3z65GdEmrjWTLLxsv[] = {
/* columns rows colors chars-per-pixel */
"50 50 217 2 ",
"   c None",
".  c #010100",
"X  c #0C0B08",
"o  c #160906",
"O  c #16191A",
"+  c #1E100F",
"@  c #291507",
"#  c #2D1B08",
"$  c #251915",
"%  c #2B130C",
"&  c #372318",
"*  c #2F2610",
"=  c #1E1B24",
"-  c #2A1E20",
";  c #002333",
":  c #252729",
">  c #392729",
",  c #2E2C37",
"<  c #3A2D3D",
"1  c #372839",
"2  c #353E3E",
"3  c #363B3A",
"4  c #2F3433",
"5  c #5C1B1A",
"6  c #4A3703",
"7  c #4C2D15",
"8  c #4E2D19",
"9  c #432615",
"0  c #52321A",
"q  c #5B361A",
"w  c #5A3718",
"e  c #41240E",
"r  c #643B1C",
"t  c #653F1A",
"y  c #501725",
"u  c #79172A",
"i  c #482F26",
"p  c #483125",
"a  c #5A3825",
"s  c #472E3C",
"d  c #43383F",
"f  c #593739",
"g  c #7B2222",
"h  c #752122",
"j  c #6D3F26",
"k  c #763D3D",
"l  c #633235",
"z  c #644218",
"x  c #75510F",
"c  c #40403C",
"v  c #6E4120",
"b  c #6A442B",
"n  c #79482F",
"m  c #774627",
"M  c #6B4136",
"N  c #7A4930",
"B  c #79403F",
"V  c #765136",
"C  c #392D41",
"Z  c #342C42",
"A  c #2D3243",
"S  c #413040",
"D  c #493241",
"F  c #5C3741",
"G  c #593B45",
"H  c #473D53",
"J  c #6C3C43",
"K  c #633942",
"L  c #713D43",
"P  c #7A3F42",
"I  c #364242",
"U  c #3A4242",
"Y  c #3D4D59",
"T  c #3D505E",
"R  c #325672",
"E  c #424746",
"W  c #5D4C44",
"Q  c #794141",
"!  c #7E4A45",
"~  c #7C4D53",
"^  c #6B625C",
"/  c #464D63",
"(  c #655872",
")  c #72586D",
"_  c #6D6277",
"`  c #706379",
"'  c #766B63",
"]  c #89273C",
"[  c #9B2F2F",
"{  c #BA3535",
"}  c #C7393A",
"|  c #D63D3C",
" . c #865F0E",
".. c #886409",
"X. c #926B0C",
"o. c #986817",
"O. c #A06F1B",
"+. c #A97B14",
"@. c #A0760A",
"#. c #854E27",
"$. c #884E2A",
"%. c #8A5126",
"&. c #8C5229",
"*. c #935529",
"=. c #8F5032",
"-. c #AC4337",
";. c #9D6724",
":. c #933746",
">. c #93304A",
",. c #894546",
"<. c #86534E",
"1. c #8D564A",
"2. c #8C5C58",
"3. c #994C53",
"4. c #AD4E47",
"5. c #A44C48",
"6. c #B24E47",
"7. c #AF514A",
"8. c #B35147",
"9. c #B25048",
"0. c #BF584E",
"q. c #BC5348",
"w. c #AC5654",
"e. c #B45953",
"r. c #956B5B",
"t. c #A77A5A",
"y. c #B3705D",
"u. c #945367",
"i. c #AF5E61",
"p. c #B17368",
"a. c #C1574C",
"s. c #C95F53",
"d. c #CE6155",
"f. c #D16356",
"g. c #DB695C",
"h. c #E66F5F",
"j. c #E86F5F",
"k. c #E86856",
"l. c #D77066",
"z. c #E77060",
"x. c #E97060",
"c. c #F37563",
"v. c #E67B71",
"b. c #E76F60",
"n. c #BC8B0B",
"m. c #BB8813",
"M. c #A98100",
"N. c #B78F20",
"B. c #C59501",
"V. c #CD9D01",
"C. c #C89604",
"Z. c #C89410",
"A. c #D3A200",
"S. c #E8B402",
"D. c #CE9B20",
"F. c #B2815E",
"G. c #B98664",
"H. c #CA936C",
"J. c #C5916B",
"K. c #CB9572",
"L. c #D59D76",
"P. c #D79F78",
"I. c #C38D67",
"U. c #DBA37B",
"Y. c #DDA377",
"T. c #E6AA7F",
"R. c #37698D",
"E. c #3C7297",
"W. c #756A80",
"Q. c #7B728D",
"!. c #8F6E88",
"~. c #B17F8F",
"^. c #8A8492",
"/. c #A9869C",
"(. c #988EAC",
"). c #9992AB",
"_. c #A996AA",
"`. c #BB95A7",
"'. c #A49CB6",
"]. c #A485A1",
"[. c #9AA5BB",
"{. c #BFADBA",
"}. c #DCA783",
"|. c #CFAF97",
" X c #E6AC82",
".X c #CDA6AD",
"XX c #DEBEA8",
"oX c #E4A4A6",
"OX c #E1BCA4",
"+X c #D4C3AD",
"@X c #EBC4AB",
"#X c #F1C7AC",
"$X c #F5CDB4",
"%X c #ECD3BC",
"&X c #F5D2BC",
"*X c #F9D4BC",
"=X c #EFCBB4",
"-X c #B6AECB",
";X c #BCB9C4",
":X c #BEB7D9",
">X c #A5A0C1",
",X c #B9BCE0",
"<X c #C1BBD1",
"1X c #C9C6D8",
"2X c #D9D6DA",
"3X c #E4DCDF",
"4X c #F8DDC4",
"5X c #F1E0C7",
"6X c #C4C4E5",
"7X c #DFDCEE",
"8X c #D0CCE5",
"9X c #ECE7EB",
"0X c #E5E5F4",
"qX c #ECEAF5",
"wX c #EBF2F5",
"eX c #F5F5FC",
"rX c #F1EBF0",
/* pixels */
"                                                                                                    ",
"                                                                                                    ",
"                                    < < < < < < < < < < < < C <                                     ",
"                                    K J J J J J J J J J J J F F                                     ",
"                              < < , e.x.h.x.x.x.x.x.x.x.x.j.8.5.S <                                 ",
"                            F F J J e.x.j.j.j.j.j.j.j.j.x.j.0.9.K F                                 ",
"                          < Q 6.d.x.h.j.z.z.z.z.z.z.z.z.z.z.x.h.8.5.D C                             ",
"                          < ,.a.f.z.h.x.j.x.x.x.x.x.x.x.j.j.j.h.0.7.D S                             ",
"                          , 3.c.h.x.x.x.x.x.x.x.x.x.x.x.x.x.j.j.x.g.s 1                             ",
"                        F K w.c.j.x.x.x.x.x.x.x.x.x.x.x.x.x.z.j.x.l.` (                             ",
"                      < L q.d.x.j.x.x.x.x.x.x.x.x.x.x.x.x.j.j.j.k.v.6X-Xs s                         ",
"                      < L 6.s.x.j.x.x.x.x.x.x.x.x.x.x.x.x.x.j.z.oXoX`././ /                         ",
"                      < L 8.d.c.x.j.x.x.x.x.x.x.x.x.x.x.x.x.x.v.wX2Xe.5.R.R 1 1                     ",
"                      < L 8.0.f.g.x.j.j.j.j.j.j.j.j.j.j.j.j.f.l.0X3Xe.i.[.[.).^.                    ",
"                      < L 8.4.5.f.c.x.x.x.x.x.x.x.x.x.x.x.x.9.i.wX3X7.p.rXqXeX<X1 S                 ",
"                      < L 8.9.7.a.f.d.d.d.d.d.d.d.d.d.d.d.d.9.e..X.X~.`.0X0XqX;X1 S                 ",
"                      < L 8.6.9.4.4.4.4.4.4.4.4.4.4.4.4.4.4.4.4.-.i.,X6X0X0XeX;X1 S                 ",
"                      < J 8.4.8.9.9.9.9.9.9.9.9.9.9.9.9.9.9.9.7.9.w.!./.qX7X8X'.1 S                 ",
"                      Z L q.9.4.9.9.9.9.9.9.9.9.9.9.9.9.9.9.9.8.9.4.u u.9X7X:X(.1 S                 ",
"                      i f L ,.9.4.4.4.4.4.4.4.4.4.4.4.4.4.4.4.4.:.3.]._.1X-XW._                     ",
"                      0 i Z P a.8.8.8.8.8.8.8.8.8.8.8.8.8.8.8.6.] u.6X:X<X'.> 1                     ",
"                      7 a N M J J J J J J J J J J J J J J J J J F G ` ` W._                         ",
"                      7 t *.M Z C C C C C C C C C C C C C < < < I I 1 1 1 1                         ",
"                        q q j N n n n n n n a i b N a p l J !.Q.: - J J J J                         ",
"                          7 v *.%.%.%.%.%.&.r 7 m %.q 8 k Q (.(.= $ k k Q B                         ",
"                          o & q m %.#.%.v 0 t.J.I.H.b 0 y.K.2X1X4 > K.G.Q Q                         ",
"                          . # 0 v &.#.%.r e G. XU.U.V 0 H.}.9X2X4 p T.K.Q Q                         ",
"                            7 7 v %.#.%.r e G.U.L.U.H.H.@X$X&X&XXXOX$X@XK.K.                        ",
"                              7 v $.#.%.r 7 F.U.L.P.U.U.#X&X$X$X*X*X%X@XU.U.                        ",
"                                # @ @ @ r &.b b J.T.L.L.U.}.$X*X*X@X2.2.                            ",
"                                o o # * t &.r 7 G.U.L.U.L.L.@X=X$XXX! k                             ",
"                                7 9 X.V.x 8 0 8 a b H.Y.1.! <.<.<.<.                                ",
"                                t w @.A...w q 0 w z K.}.2.~ P k Q Q                                 ",
"                              8 @.V.B.B.B.B.;.$.m.D.{.:X:X-X>.]                                     ",
"                              & X.C.B.B.B.V.o.j +.N._.>X'.).:.]                                     ",
"                              . q =.+.V.B.A.6 . 4 U 2 2 O o { } d I                                 ",
"                              . z ;.+.n.n.n.6 . 4 U ^ ' W W [ [ 2 I                                 ",
"                              . ..S.O.N %.*.& . 4 E +X4X5X%X& + 2 U                                 ",
"                              . x Z.O.;.m v & O 3 E |.#X@XOX$ X 2 U                                 ",
"                              . r =.m.S.x . 4 U 3 c K.T.T.U.$ X 2 U                                 ",
"                              . 7 v  .M.6 . A T Y Y r.F.t.t.- O 2 U                                 ",
"                                . . . . . . R E.R.E.; . . . U E                                     ",
"                                  . . X . . H ( ) ) l 5 5 5 : :                                     ",
"                                        . . u >.} | | | | | o .                                     ",
"                                          . y y h g g g g h o                                       ",
"                                            . . . . . . . .                                         ",
"                                                                                                    ",
"                                                                                                    ",
"                                                                                                    ",
"                                                                                                    "
};
