/* XPM */
static char *f04785dc577c4501ee927ba2401761b5pZVn8aYpmv8gTqpb[] = {
/* columns rows colors chars-per-pixel */
"50 50 225 2 ",
"   c None",
".  c #020101",
"X  c #0B0402",
"o  c #0A0908",
"O  c #160A05",
"+  c #1B1207",
"@  c #0C1216",
"#  c #161A1A",
"$  c #23070B",
"%  c #230808",
"&  c #29090B",
"*  c #2B150B",
"=  c #291809",
"-  c #38121B",
";  c #311312",
":  c #1B201F",
">  c #392708",
",  c #3D2314",
"<  c #0E1A24",
"1  c #131C26",
"2  c #1C2020",
"3  c #272B2A",
"4  c #3A2C3D",
"5  c #36293A",
"6  c #2D3333",
"7  c #2D393B",
"8  c #363B3C",
"9  c #29312F",
"0  c #671A1A",
"q  c #4B2D15",
"w  c #462816",
"e  c #4F301A",
"r  c #523119",
"t  c #5C361A",
"y  c #593918",
"u  c #4A2B14",
"i  c #6A3E1F",
"p  c #661E2F",
"a  c #412923",
"s  c #58262E",
"d  c #422F3C",
"f  c #43313D",
"g  c #493436",
"h  c #51363B",
"j  c #56383A",
"k  c #583A3B",
"l  c #403229",
"z  c #673A26",
"x  c #672832",
"c  c #742538",
"v  c #6F3536",
"b  c #6D353A",
"n  c #773C3D",
"m  c #712528",
"M  c #775805",
"N  c #7E541A",
"B  c #6A4319",
"V  c #45403F",
"C  c #6F4628",
"Z  c #744322",
"A  c #7A4826",
"S  c #75473C",
"D  c #7E5639",
"F  c #6C503D",
"G  c #77642F",
"H  c #3C2E41",
"J  c #353C44",
"K  c #3D3C50",
"L  c #433140",
"P  c #4C3543",
"I  c #543642",
"U  c #5D3944",
"Y  c #6F3C43",
"T  c #793E43",
"R  c #3B4343",
"E  c #374445",
"W  c #324650",
"Q  c #365975",
"!  c #325069",
"~  c #484B58",
"^  c #52424F",
"/  c #7B4449",
"(  c #765C4A",
")  c #736654",
"_  c #595568",
"`  c #615569",
"'  c #695C71",
"]  c #6D6576",
"[  c #716A76",
"{  c #706A6D",
"}  c #83253C",
"|  c #802B3F",
" . c #923738",
".. c #BB3636",
"X. c #BB3739",
"o. c #A53631",
"O. c #C43939",
"+. c #E63E3E",
"@. c #976D0A",
"#. c #9C720A",
"$. c #9C681E",
"%. c #8F6511",
"&. c #A27907",
"*. c #A47119",
"=. c #854E27",
"-. c #844C2A",
";. c #8B4F2F",
":. c #8B5126",
">. c #8B5229",
",. c #92552B",
"<. c #955A29",
"1. c #865A3B",
"2. c #AB463E",
"3. c #B2463B",
"4. c #906030",
"5. c #A57021",
"6. c #892C42",
"7. c #942A44",
"8. c #893645",
"9. c #9C3E46",
"0. c #8B4746",
"q. c #9E4A46",
"w. c #974C4B",
"e. c #865D41",
"r. c #924F56",
"t. c #A54C47",
"y. c #AE4F47",
"u. c #AD4F48",
"i. c #AA4742",
"p. c #AE5048",
"a. c #AE5047",
"s. c #B35148",
"d. c #BA554A",
"f. c #B55047",
"g. c #B45A54",
"h. c #B85B54",
"j. c #B34E44",
"k. c #9F6754",
"l. c #8F694E",
"z. c #A87659",
"x. c #AA7456",
"c. c #B45E60",
"v. c #8C7070",
"b. c #A37369",
"n. c #CA5F52",
"m. c #CC6155",
"M. c #D8685A",
"N. c #E56E5F",
"B. c #E96D5D",
"V. c #E76856",
"C. c #E8705F",
"Z. c #E77162",
"A. c #E97060",
"S. c #F07462",
"D. c #B98A08",
"F. c #AF8209",
"G. c #C28E0D",
"H. c #C69601",
"J. c #C99A02",
"K. c #C49509",
"L. c #D09F02",
"P. c #D4A201",
"I. c #DCA602",
"U. c #CEA102",
"Y. c #A78459",
"T. c #968476",
"R. c #B78666",
"E. c #B48777",
"W. c #D59D75",
"Q. c #C99477",
"!. c #DCA37B",
"~. c #DDA275",
"^. c #CCA871",
"/. c #E5A979",
"(. c #375F80",
"). c #40698A",
"_. c #457193",
"`. c #6F7082",
"'. c #977992",
"]. c #9D859B",
"[. c #8E8F97",
"{. c #BE9284",
"}. c #AC8C99",
"|. c #BBA699",
" X c #BEB09C",
".X c #AB95B0",
"XX c #A9A1BF",
"oX c #C39987",
"OX c #C69498",
"+X c #C18C9C",
"@X c #D8AE96",
"#X c #DDAA87",
"$X c #EAAF86",
"%X c #ECB185",
"&X c #E9B998",
"*X c #CE9EB1",
"=X c #C9ACB6",
"-X c #CAB1BB",
";X c #D0B6AF",
":X c #E7AFB0",
">X c #DFC6BC",
",X c #EFC4A6",
"<X c #F5CCB4",
"1X c #F8D4BB",
"2X c #E5C5B7",
"3X c #A29EC4",
"4X c #ABA5C6",
"5X c #B5ADCB",
"6X c #BCB4D5",
"7X c #B9B6E6",
"8X c #C2BCDB",
"9X c #D8BFC5",
"0X c #E7BAC1",
"qX c #D3D1DA",
"wX c #FCDDC6",
"eX c #F0DBC4",
"rX c #EBDEDE",
"tX c #FBE2C9",
"yX c #FBE9CC",
"uX c #C4C4E9",
"iX c #D9D8EA",
"pX c #E1DFED",
"aX c #E8E9F5",
"sX c #EDF3FA",
"dX c #F5F2F1",
/* pixels */
"                                                                                                    ",
"                                    L L L L L L L L L L L L L                                       ",
"                                    4 4 4 4 4 4 4 4 4 4 4 4 4                                       ",
"                            f L 4 U g.g.g.g.g.g.g.g.g.g.h.w.0.Y 4                                   ",
"                            4 4 5 U A.A.A.S.S.S.S.A.A.A.S.m.j.T 5                                   ",
"                        L P 0.w.g.h.N.N.N.N.N.N.N.N.N.N.N.M.M.p.0.Y 4                               ",
"                        L P y.d.A.A.N.N.A.A.A.A.A.A.A.C.A.A.A.n.f.T 4                               ",
"                        L I M.M.N.N.N.N.A.A.A.A.A.A.A.N.A.N.A.M.N.0.H                               ",
"                        f I N.A.N.A.A.A.A.A.A.A.A.A.A.A.A.A.N.Z.S.w.5                               ",
"                    L L q.u.N.A.C.A.A.A.A.A.A.A.A.A.A.A.A.A.N.Z.B.+X4X' 4                           ",
"                    L L y.d.N.A.Z.A.A.A.A.A.A.A.A.A.A.A.A.A.N.Z.Z.*XuX] 4                           ",
"                    L L t.f.N.A.N.A.A.A.A.A.A.A.A.A.A.A.N.A.V.:XrXOXc.] (.K 4                       ",
"                    L L t.d.N.C.N.A.A.A.A.A.A.A.A.A.A.A.N.Z.V.0XsXOX3.] _.~ ^                       ",
"                    L L t.f.f.d.N.A.A.A.A.A.A.A.A.A.A.C.A.m.3.-XsXOXo.-XiXqXqX[ 5                   ",
"                    L L t.f.y.f.N.N.N.N.N.N.N.N.N.N.N.N.N.m.2.=XaXOXi.9XsXaXaX[ 5                   ",
"                    L L t.f.y.s.s.s.s.s.s.s.s.s.s.s.f.f.f.s.y.g.g.}.5XiXaXaXaX[ 5                   ",
"                    f f t.s.y.y.y.y.y.y.y.y.y.y.y.y.y.y.y.y.s.u.2.}.4XiXaXiXpX] 4                   ",
"                    L L u.f.y.y.s.s.s.s.a.s.s.s.s.s.s.s.s.s.y.y.s.9.| -XsX8X6X` 4                   ",
"                    f f q.t.y.y.u.p.p.p.a.p.p.p.p.p.p.p.p.u.a.u.u.r.r.-XaX5XXX` 4                   ",
"                    e e f P a.f.f.f.f.f.f.f.f.f.f.f.f.f.f.s.d.9.} .XuX6X8X' L                       ",
"                    r r h k q.t.q.q.q.q.q.q.q.q.q.q.q.q.q.q.t.8.c '.4XXXXX` 4                       ",
"                    e r :.:.f H H H H H H H H H H H H H H 4 4 8 E H 4 4 4                           ",
"                    e r Z A k j j j j j j h g g k h d g h ^ ` P 9 f I I I                           ",
"                        r t :.:.:.:.:.:.,.A w t :.Z q z v v.3X_ . s n n S                           ",
"                        , , Z A =.=.:.=.Z A e.1.x.1.q S k.].8X] o / k.0.n                           ",
"                        . X q r =.=.:.A w D $X!.$XR.* l./.>XdX[.o z.%Xl.b                           ",
"                        . + q y =.=.=.A q D !.W.!.R.e.R.&X2XrX|.v.oX&XR.k.                          ",
"                            q t >.,.,.=.w D %X!.W.!./.&XwX1X<X1XtXwXtX&X~.                          ",
"                            r r t t t t i D z.R.!.W.W.#X&X,X1X<X<X@XoXQ.W.                          ",
"                                . . . = <.=.> e.%X!.W.!.~.,XtX1XyXE.x                               ",
"                                * > M M Z i q C k.z.!.Q.z.E.oX{.oXb.n                               ",
"                                w B P.D., w q q * 1./.x.p v v v v                                   ",
"                            q y @.#.H.D.#.%.z N @.Y.=X}.].v.n /                                     ",
"                            e B L.P.H.J.P.G.;.5.I.^.7X6XuX].v                                       ",
"                            = > $.*.H.H.J.&.w y G ) `.' _ / X.n E                                   ",
"                            . = A >.J.J.P.&.+ # J 7 8 3 . m +. .E                                   ",
"                            . > F.F.$.$.5.N O # R 8 R 8 6 a 0 g E                                   ",
"                            . > U.K.-.-.,.Z X : R R J 8 R 9 : 6 R                                   ",
"                            . = <.$.G.&.> = . o # 3 7 { ;X|. X) @ 6 R                               ",
"                            . = -.<.P.F.X . . . . 2 7 T.tX<XtXT.. 9 R                               ",
"                            c x * = > > 6 J Q Q Q W . ( $X&XwXv.X s 8.- .                           ",
"                            7.} O . . @ R W _.)._.! . F ~.@XeXv.. p 7.- .                           ",
"                        . & ..X.} c 8 E ).! < < < @ . + a l g x } } 7.- .                           ",
"                        . & ..X.7.6.V ~ ).Q o . . . . . . X . p 7.} 6.- .                           ",
"                        . & O.O.X.X.O.o.1 <                   $ $ $ &                               ",
"                        . & ........O.o.X .                     . . .                               ",
"                            % & % % % %                                                             ",
"                            . . . . . .                                                             ",
"                                                                                                    ",
"                                                                                                    "
};
