/* XPM */
static char *bef7315a546e43ddfc8e76801ea95abdwBUWGUclRDPK065E[] = {
/* columns rows colors chars-per-pixel */
"50 50 215 2 ",
"   c None",
".  c #030101",
"X  c #0B0603",
"o  c #0D0A06",
"O  c #120C02",
"+  c #150F08",
"@  c #171004",
"#  c #1B1B1A",
"$  c #161412",
"%  c #0F1010",
"&  c #27160A",
"*  c #2A0C11",
"=  c #261514",
"-  c #3B210D",
";  c #352008",
":  c #292116",
">  c #1C2220",
",  c #37282A",
"<  c #392737",
"1  c #352B3D",
"2  c #3D2E3E",
"3  c #352737",
"4  c #2A3736",
"5  c #353C3C",
"6  c #35373B",
"7  c #5C1919",
"8  c #75101C",
"9  c #42250E",
"0  c #4C2D15",
"q  c #482A15",
"w  c #4F3017",
"e  c #523215",
"r  c #533218",
"t  c #5C3719",
"y  c #673D1E",
"u  c #4A1925",
"i  c #6D1F32",
"p  c #4A2C2C",
"a  c #5A3728",
"s  c #422F3F",
"d  c #472F30",
"f  c #45313B",
"g  c #533938",
"h  c #49322A",
"j  c #6B3F21",
"k  c #662834",
"l  c #663A36",
"z  c #753C3C",
"x  c #7A3A3A",
"c  c #37403F",
"v  c #7B491F",
"b  c #664417",
"n  c #4E4539",
"m  c #794826",
"M  c #6B4234",
"N  c #6E4A30",
"B  c #7A543A",
"V  c #714C31",
"C  c #1E384A",
"Z  c #352C41",
"A  c #3B2F42",
"S  c #3A3A46",
"D  c #23384A",
"F  c #422F41",
"G  c #433040",
"H  c #4C3341",
"J  c #583742",
"K  c #683C43",
"L  c #793E41",
"P  c #2D4040",
"I  c #334343",
"U  c #3B4142",
"Y  c #374B46",
"T  c #3C4156",
"R  c #37576D",
"E  c #4A4841",
"W  c #4A4754",
"Q  c #5E5953",
"!  c #425055",
"~  c #7B4043",
"^  c #7C4448",
"/  c #6C5552",
"(  c #5A5264",
")  c #64566A",
"_  c #765E73",
"`  c #746A79",
"'  c #78717C",
"]  c #6F647A",
"[  c #851533",
"{  c #992B2B",
"}  c #853B3B",
"|  c #922E3B",
" . c #AA3C2F",
".. c #CB3838",
"X. c #D23939",
"o. c #A57C05",
"O. c #844E26",
"+. c #854D29",
"@. c #8B4E22",
"#. c #8B5125",
"$. c #8A5129",
"%. c #845124",
"&. c #945D25",
"*. c #935828",
"=. c #80593C",
"-. c #AB433A",
";. c #B1443E",
":. c #996322",
">. c #892C43",
",. c #922A43",
"<. c #993A43",
"1. c #86354B",
"2. c #A13F47",
"3. c #C03F43",
"4. c #834243",
"5. c #9E4A46",
"6. c #924C4B",
"7. c #925851",
"8. c #AD4E47",
"9. c #A74C47",
"0. c #AF5048",
"q. c #B15047",
"w. c #B25148",
"e. c #BA5449",
"r. c #B14F46",
"t. c #966B4B",
"y. c #976558",
"u. c #8F684D",
"i. c #A87956",
"p. c #B57A5C",
"a. c #9D5A6E",
"s. c #9B6D65",
"d. c #8F686C",
"f. c #AC6671",
"g. c #C65E53",
"h. c #DA5F4E",
"j. c #D56659",
"k. c #D96759",
"l. c #DB6A5C",
"z. c #D76557",
"x. c #CD6155",
"c. c #E56E5E",
"v. c #E96B58",
"b. c #E9705F",
"n. c #E66F60",
"m. c #E77060",
"M. c #E97060",
"N. c #F17462",
"B. c #E77D72",
"V. c #AE8208",
"C. c #BC8E04",
"Z. c #B78908",
"A. c #BE9104",
"S. c #C49403",
"D. c #CB9B02",
"F. c #C4930B",
"G. c #D4A206",
"H. c #BC8E5E",
"J. c #B88566",
"K. c #B0866F",
"L. c #C28C6C",
"P. c #CA9979",
"I. c #D69E75",
"U. c #D79F78",
"Y. c #DAA27A",
"T. c #DCA277",
"R. c #C2A061",
"E. c #E2A77B",
"W. c #3C6583",
"Q. c #386F95",
"!. c #48698B",
"~. c #446E90",
"^. c #7B6D83",
"/. c #7E7A8A",
"(. c #706E8B",
"). c #8E7890",
"_. c #A7778B",
"`. c #7996B3",
"'. c #8B839C",
"]. c #87878B",
"[. c #AF928F",
"{. c #ACA08E",
"}. c #AA8FAA",
"|. c #B9A8BE",
" X c #C69A9D",
".X c #C5948D",
"XX c #D8AB8E",
"oX c #E7AC81",
"OX c #E8B898",
"+X c #F3B785",
"@X c #C995A1",
"#X c #D4B2A9",
"$X c #E4ABAA",
"%X c #EA8E88",
"&X c #EEC4A9",
"*X c #EACBB3",
"=X c #F7D3BA",
"-X c #F1CBB2",
";X c #A39DC2",
":X c #B8ACC6",
">X c #B8B5DB",
",X c #BABFE3",
"<X c #C1B7DA",
"1X c #D1B9C3",
"2X c #BAC4E9",
"3X c #CFC3D7",
"4X c #F9DBC3",
"5X c #F3DBCA",
"6X c #D9D6E9",
"7X c #D3D6F1",
"8X c #EAECFB",
"9X c #E4E3F2",
"0X c #EAF8FE",
"qX c #F4F7FB",
"wX c #EDEAEF",
/* pixels */
"                                                                                                    ",
"                                                                                                    ",
"                                      G G G G G G G G G G G G G                                     ",
"                                      H H H H H H H H H H H H G G                                   ",
"                              2 A 2 J k.l.k.l.l.k.k.k.k.k.c.g.8.~ 1                                 ",
"                              H H J K b.M.M.M.M.M.M.M.M.M.N.z.e.4.G                                 ",
"                          2 G 5.8.k.l.c.c.m.n.n.n.n.n.n.n.c.c.c.g.9.L 1                             ",
"                          2 G 9.e.c.M.M.M.M.M.M.M.M.M.M.M.M.c.M.x.w.~ 2                             ",
"                          2 G j.b.c.n.M.M.M.M.M.M.M.M.M.M.M.c.c.c.M.6.3                             ",
"                          H J k.M.m.M.M.M.M.M.M.M.M.M.M.M.M.m.b.n.N.7.W                             ",
"                      2 G 5.w.c.M.M.M.M.M.M.M.M.M.M.M.M.M.M.M.b.m.v.@X,X^.<                         ",
"                      2 F 5.w.c.M.M.M.M.M.M.M.M.M.M.M.M.M.M.m.c.B.%X@X:X^.S W                       ",
"                      2 G 5.w.c.M.m.c.M.M.M.M.M.M.M.M.M.M.c.M.v.$X0X X;._ Q.T <                     ",
"                      2 F 5.w.j.l.c.c.c.m.m.m.m.m.m.m.n.c.M.c.h.$X0X X-.).`././.                    ",
"                      2 s 5.w.8.w.M.M.M.M.M.M.M.M.M.M.M.M.N.j.-. XqX X .1XqXwXqX' <                 ",
"                      2 s 5.w.0.w.j.k.k.k.k.k.k.k.k.k.k.k.l.g.-..X6X Xf.3X8X9X8X` <                 ",
"                      2 s 5.w.8.0.8.8.8.8.8.8.8.8.8.8.8.8.8.8.w.8. .}.2X6X8X8XqX' <                 ",
"                      2 s 5.w.8.w.w.w.w.w.w.w.w.w.w.w.w.0.0.0.8.0.0._.}.3X8X6X6X] 1                 ",
"                      A F 9.e.8.0.w.w.w.w.w.w.w.w.w.w.w.w.w.w.8.0.w.| 8 1XqX3X<X) 1                 ",
"                      d d L 4.8.8.8.8.8.8.8.8.8.8.8.8.8.8.8.8.0.9.<.a._.:X6X}.).) 1                 ",
"                      e e 1 Z 8.e.w.w.w.w.w.w.w.w.w.w.w.w.w.w.e.2.[ }.7X>X<X] 3                     ",
"                      w w l M ~ 4.4.4.4.4.4.4.4.4.4.4.4.4.4.4.4.L k _ '.).'.)                       ",
"                      0 w #.*.s Z Z Z Z Z Z Z A Z Z Z A Z Z 1 3 6 Y 6 3 3 3                         ",
"                        0 y j M M M M M M M l p a M l p g l / /.W > f K K K                         ",
"                          r r #.*.#.#.#.#.*.O.9 e @.v 0 l x d.;X( . p L z ~                         ",
"                          & & t j O.+.+.O.y N i.i.J.t.q B p.[.6X' . ^ L.7.z                         ",
"                          . . q r O.$.$.O.q N E.Y.oXJ.- u.E.#XqX].. u.+Xy.l                         ",
"                              0 r O.O.O.O.0 N I.I.Y.P.i.P.&X*X5X#X[.XX&XP.J.                        ",
"                              0 r $.$.$.O.q N Y.Y.I.Y.E.OX4X=X-X=X4X4X4XOXT.                        ",
"                                  - - - 9 m m B t.Y.I.I.Y.XXOX=X-X=X.Xs.K.                          ",
"                                  X X @ ; *.O.9 V oXY.U.Y.I.OX=X=X4XK.k                             ",
"                                  9 e V.o.t t r a B t.E.J.7.y.s.s.s.y.                              ",
"                                  r b G.S.r e w r q =.oXJ.K L z z z                                 ",
"                              r t V.C.S.S.C.V.m &.C.H.<X|.:X_.[ 1.                                  ",
"                              0 t S.D.S.S.D.A.+.:.D.R.>X:X>X}.[ >.                                  ",
"                              X @ #.:.D.S.&.v O : n E W W ! ^ ..} P                                 ",
"                              . o %.&.S.Z.O.b . # U 5 4 5 5 x X.} P                                 ",
"                              . O S.F.*.%.& = 5 5 U 4 o u >.| ..} P                                 ",
"                              . O C.F.&.%.o # Q Q Q E X u 1.<.3.L U                                 ",
"                              . o $.&.G.S.@ n *X*X5X{.$ D !.!.!.( z                                 ",
"                              % $ m %.A.V.O n -X&X=X{.$ D ~.W.W.) } z                               ",
"                              c 5 + X O O . h E.Y.oXJ.+ C Q.R 4 x ..x I                             ",
"                              5 5 * * * * % , J.J.L.u.$ S (.( g } ..x 4                             ",
"                              c S >.,.,.>.U 6 . . . # I x X.......X.8 .                             ",
"                              U 5 k i i k U 6 . X . # I l { { { { { 7 .                             ",
"                                  . . . .                 . . . . .                                 ",
"                                  . . . .                 . . . . .                                 ",
"                                                                                                    ",
"                                                                                                    ",
"                                                                                                    "
};
