/* XPM */
static char *d3b816265283436fbddd9c3f54903c04qV4e1wrOWI493tyZ[] = {
/* columns rows colors chars-per-pixel */
"50 50 79 1 ",
"  c #4CA680",
". c #47A980",
"X c #48A980",
"o c #4DAB83",
"O c #4DAD85",
"+ c #50A781",
"@ c #50A983",
"# c #52A984",
"$ c #54AA85",
"% c #51AD86",
"& c #54AC86",
"* c #56AE88",
"= c #51B088",
"- c #57B18B",
"; c #54B58C",
": c #59B18B",
"> c #59B28C",
", c #5CB28D",
"< c #5AB58F",
"1 c #5CB48E",
"2 c #57B88F",
"3 c #5BB690",
"4 c #5FB590",
"5 c #5FB893",
"6 c #60B992",
"7 c #62B994",
"8 c #65BB96",
"9 c #61BC96",
"0 c #65BD97",
"q c #63BF98",
"w c #64BF98",
"e c #68BF99",
"r c #62C29A",
"t c #66C09A",
"y c #67C79F",
"u c #6AC09B",
"i c #68C29C",
"p c #6CC39E",
"a c #6FC39F",
"s c #6BC59F",
"d c #6EC49F",
"f c #67C89F",
"g c #71C39F",
"h c #69C7A0",
"j c #6FC4A0",
"k c #6BC9A1",
"l c #6CCAA2",
"z c #6FCFA7",
"x c #73C7A3",
"c c #75C7A3",
"v c #78C5A3",
"b c #79C7A5",
"n c #70C8A2",
"m c #73C8A4",
"M c #77C9A5",
"N c #72CDA7",
"B c #76CCA7",
"V c #79CBA7",
"C c #73CFA8",
"Z c #77CFA9",
"A c #7CCBA8",
"S c #7BCDA9",
"D c #7ECEAB",
"F c #7ECFAC",
"G c #73D1A9",
"H c #78D0AA",
"J c #7FD0AC",
"K c #83D0AE",
"L c #84D1AF",
"P c #83D2B0",
"I c #85D2B0",
"U c #82D4B0",
"Y c #84D6B2",
"T c #88D4B2",
"R c #89D7B5",
"E c #86D8B4",
"W c #8ADAB7",
"Q c #8BDDB9",
"! c #8CDEBA",
/* pixels */
"xxxxxxxxxxxxxxxxxxxxxxxxxxxxxxxxxxxxxxxxxxxxxxxxxx",
"xxxxxxxxxxxxxxxxxxxxxxxxxxxxxxxxxxxxxxxxxxxxxxxxxx",
"xxxxxxxxxxxxxxxxxxxxxxxxxxxxxxxxxxxxxxxxxxxxxxxxxx",
"xxxxxxxxxxxxxxxxxxxxxxxxxxxxxxxxxxxxxxxxxxxxxxxxxx",
"xxxxxxxxxxxxxxxxxxxxxxxxxxxxxxxxxxxxxxxxxxxxxxxxxx",
"xxxxxxxxxxxxxxxxxxxxxxxxxxxxxxxxxxxxxxxxxxxxxxxxxx",
"xxxxxxxxxxxxxxxxxxxxxxxxxxxxxxxxxxxxxxxxxxxxxxxxxx",
"xxxxxxxxxxxxxxxxxxxxxxxxxxxxxxxxxxxxxxxxxxxxxxxxxx",
"xxxxxxxccccccccccccccxxxxxxxxxxxxxccccccccccccccxx",
"xxxxxxxccccccccccccccxxxxxxxxxxxxxccccccccccccccxx",
"xxxxxxxccccccccccccccxxxxxxxxxxxxxccccccccccccccxx",
"xxxxxxxccccccccccccccxxxxxxxxxxxxxccccccccccccccxx",
"xxxxxxxccccccccccccccxxxxxxxxxxxxxccccccccccccccxx",
"xxxxxxxccccccccccccccxxxxxxxxxxxxxccccccccccccccxx",
"xxxxxxxccccccccccccccxxxxxxxxxxxxxxxxxxxxxxxxxxxxx",
"xxxxxxxccccccccccccccxxxxxxxxxxxxxxxxxxxxxxxxxxxxx",
"xxxxxxmcMccMMMMMcxcccxxxmxxMxxmxxxMjmmemnmxxMMnxxx",
"mxxxxxxccccVJKUJMccxcxxxMMMMxMSMxxmnmu,dMBmxnxdxxx",
"xxMMxxxcMcxMUWWYVccxMxxxmMxxxMMxxxMMm6+uMMnnMmnnxx",
"jxxMMMxMVMxcJWEKMxccMMxxxxxMxxaaxMMBM7+aMxxxnmmnxx",
"xxxxxxxxMVcxDEEJcgcMMMxxxxMxmxxxxMmmm0&ammnnxjjxxx",
"MmxxxxxxxVMcJWQUVxccaaxxxxMxxxmMMjxjn0*annNmmmBMxx",
"MmxxxMSVxMMMJQQYVxccxcSMmxxxxaaMMdxjn0&unnmldadxxx",
"xxxxMJUKccMcJEWUVcccSUEYSMxMx44amxmmm7@uBmli<%#8nx",
"xxxxMUQKxgcMJWEKMcMcAIWWFxxjM4>sjjxxx8+wZjlG=O=7nx",
"axMMSUQJcxccDQ!YVxxgDTRRDxxxj:-szZxca8$wNmzz=.X6nx",
"xmMMMJUJSDVcSYYJMMSVKLKKScxBj1<qtsaMxw1ajlhr2;;tnx",
"xMMxxmMJUYJcMVcccSYEIAvVVMMMxat3%:aVxaumjlw;rfylnx",
"mMMxxxxJEQKcgxccMJWQPbgcMMMxjmj- #eMxxnHnC9otzlmxx",
"xxmMMMMJW!UVxxcMVJWQYVccMxmmjBt@ #exxxxZnm5otNknxx",
"xxxmMMMDUUJVMccccSYYJVcMMxxMjme>1:axxmaMjjw>tCmnxx",
"MxxxxxxxMcxxcMMcxcVMccxMcxxxaBmnZaxMMMannBmasNmxcx",
"xxxxxxxcccccccccccccccccxxxnxnnnmxxxxnxnnnnnnnnmmx",
"xxxxxxxcccccccccccccccccxxxnnnnnnnxxxnnnnnnnnnnMxx",
"xxxxxxxccccccccccccccxxxxxxxxxxxxxnnnnnnnnnnnnnxxx",
"xxxxxxxccccccccccccccxxxxxxxxxxxxcnnnnnnnnnnnnnxxM",
"xxxxxxxccccccccccccccnnnnnncccxxxxnnnnncxxxxxxxxxM",
"xxxxxxxcccccccccccccxnnnnnnxccxxxxnnnnncxxxxxccxxM",
"xxxxxxxcccccccccccccxnnnnnnxcxcccxnnnnncxxcccccxxc",
"xxxxxxxccccccccccccccnnnnnnxcxcccxxnnnncxxccccccMc",
"xxxxxxxxxxxxxxxxxxxxxxxxxxxxxxxxxxxxxxxxxxxxxxxcMM",
"xxxxxxxxxxxxxxxxxxxxxxxxxxxxxxxxxxxxxxxxxxxxxxxcMM",
"xxxxxxxxxxxxxxxxxxxxxxxxxxxxxxxxxxxxxxxxxxxxxxxcMM",
"xxxxxxxxxxxxxxxxxxxxxxxxxxxxxxxxxxxxxxxxxxxxxxxccc",
"xxxxxxxxxxxxxxxxxxxxxxxxxxxxxxxxxxxxxxxxxxxxxxxccc",
"xxxxxxxxxxxxxxxxxxxxxxxxxxxxxxxxxxxxxxxxxxxxxxxccx",
"xxxxxxxxxxxxxxxxxxxxxxxxxxxxxxxxxxxxxxxxxxxxxxxMcx",
"xxxxxxxxxxxxxxxxxxxxxxxxxxxxxxxxxxxxxxxxxxxxxxxMMx",
"xxxxxxxxxxxxxxxxxxxxxxxxxxxxxxxxxxxxxxxxxxxxxxxccc",
"xxxxxxxxxxxxxxxxxxxxxxxxxxxxxxxxxxxxxxxxxxxxxxxccc"
};
