/* XPM */
static char *b060090db4ef41a499a9537328fb94c1QthZqYJOAXuSh05T[] = {
/* columns rows colors chars-per-pixel */
"50 50 82 1 ",
"  c #4AA87E",
". c #4EAB83",
"X c #4EAE82",
"o c #4FAE85",
"O c #51AE84",
"+ c #52B087",
"@ c #54B187",
"# c #53B188",
"$ c #57B28A",
"% c #56B58C",
"& c #58B58E",
"* c #5AB78F",
"= c #5DB890",
"- c #5FBC93",
"; c #61BD97",
": c #62BF98",
"> c #6CBD99",
", c #70BF99",
"< c #63C099",
"1 c #64C199",
"2 c #66C39D",
"3 c #67C59D",
"4 c #68C39B",
"5 c #6BC39C",
"6 c #6CC29C",
"7 c #68C59C",
"8 c #6FC59E",
"9 c #68C89E",
"0 c #6EC99F",
"q c #72C19B",
"w c #72C39E",
"e c #70C49E",
"r c #74C69F",
"t c #6AC7A0",
"y c #6DC7A0",
"u c #6BC8A0",
"i c #6FC8A1",
"p c #6CC9A3",
"a c #6FCBA5",
"s c #71C7A1",
"d c #74C7A2",
"f c #78C7A1",
"g c #71C9A2",
"h c #76C8A3",
"j c #74CDA3",
"k c #73CBA4",
"l c #76CAA4",
"z c #72CDA5",
"x c #71CEA7",
"c c #77CFA6",
"v c #78C9A2",
"b c #7ACBA7",
"n c #7CCBA5",
"m c #78CCA7",
"M c #7DCDA7",
"N c #76CFA8",
"B c #7BCEA9",
"V c #7DCEAA",
"C c #7AD2AB",
"Z c #7ED1AB",
"A c #7ED2AC",
"S c #7ED6AC",
"D c #80D3AB",
"F c #81D3AC",
"G c #84D3AF",
"H c #83D7AF",
"J c #85D7B0",
"K c #88D7B1",
"L c #83D9B0",
"P c #85DBB2",
"I c #86DBB5",
"U c #87DDB4",
"Y c #88DBB4",
"T c #88DEB5",
"R c #8EDEB7",
"E c #88DEB8",
"W c #8EDEB8",
"Q c #8BE1B8",
"! c #8EE0BA",
"~ c #8FE4BC",
"^ c #90E1BB",
"/ c #90E4BC",
/* pixels */
"iiiiiiiiiiiiiiiiiiiiiiiiiiiiiiiiiiiiiissssssssiiii",
"iiiiiiiiiiiiiiiiiiiiiiiiiiiiiiiiiiiiiissssssssiiii",
"iiiiiiiiiiiiiiiiiiiiiiiiiiiiiiiiiiiiiissssssssiiii",
"iiiiiiiiiiiiiiiiiiiiiiiiiiiiiiiiiiiiiissssssssiiii",
"iiiiiiiiiiiiiiiiiiiiiiiiiiiiiiiiiiiiiissssssssiiii",
"iiiiiiiiiiiiiiiiiiiiiiiiiiiiiiiiiiiiiissssssssiiii",
"iiiiiiiiiiiiiiiiiiiiiiiiiiiiiiiiiiiiiissssssssiiii",
"iiiiiiissssssiiiiiiiiiiiiiiiiiiiiiiiiissssssssiiii",
"iiiiiissssssssiiiiiiiiiiiiiiiiiiiiiiiiiiiiiiiiiiii",
"iiiiiissssssssiiiiiiiiiiiiiiiiiiiiiiiiiiiiiiiiiiii",
"iiiiiissssssssiiiiiiiiiiiiiiiiiiiiiiiiiiiiiiiiiiii",
"iiiiiiissssssiiiiiiiiiiiiiiiiiiiiiiiiiiiiiiiiiiiii",
"iiiiiiiiggkgi7iii747yiiiiiiiiiiiiiiiiiiiiiiiiiiiii",
"iiiiiiiiiiiiy7ygi-$=47iiiiiiiiiiiiiiiiiiiiiiiiiiii",
"iiiiiiiiii777u7zy@ O1iiiiiiiiiiiiiiiiiiiiiiiiiiiii",
"iiiiiiiiii117u7z7X X4ziiiiiiiiiiiiiiiiiiiiiiiiiiii",
"iiiiii8i8=oX-zaa2o X;taa2=%=1aiiiiiiiiiiiiiiiiiiii",
"iiiiiisg5=  #9ia7$.$2ua7=oX#:iiiiiiiiiiiiiiiiiiiii",
"iiiiiiss84+  +1ut;=:7t<%X  $7aiiiiiiiiiiiiiiiiiiii",
"iiiiiisgg81X  &2ai7tui%X .&3aziiiiiiiiiiiiiiiiiiii",
"iiiiiissiii=Oo=1tiaaau=++&uiiiiiiiiiiiiiiiiiiiiiii",
"iiiiiissiii71;tiaaauiuu2<7iiiiiiiiiiiiiiiiiiiiiiii",
"iiiiiissiiyuuuaaiiiiiizauiiiiiiiiiiiiiiiiiiiiiiiii",
"iiiiiissiiyu77iiiiiiai3tiiiuuiiiiiiiiiiiiiiiiiiiii",
"iiiiiiiiiiiiiiiiiiiiiiiiiiuuuiiiiiiiiiiiiiiiiiiiii",
"iiiiiiiiiiiiiiiiiiiiiiiiiiiiuiiiiiiiiiiiiiiiiiiiii",
"iiiiiiiiiiiiiiiiiiiiiiiiiiiiiiiiiiiiiiiiiiiiiiiiii",
"iiiiiiiiiiiiiiiiiiiiiiggggiiiiisgggssiiiiiiiiiiiii",
"iiiiiiiiiiiiiiiiiiiiiigs868sssselAHmdsgs85sgggiiii",
"iiiiiiiiiiiiiiiiiiiiiigsssgsssddAIUAlhdssysssgiiii",
"iiiiiiiiiiiiiiiiiiiiiighllmldswdHE!JBhdhllldssiiii",
"iiiiiiiiiiiiiiiiiiiiisdhmVZbdw>wHW~YVddhbBVbbdiiii",
"iiiiiiiiiiiiiiiiiiiiisrqMY^Kn,fdF!/KvwdfVYWFf6iiii",
"iiiiiiiiiiiiiiiiiiiiisvdZU!YDvdrDRWFvrdnGRRJbdiiii",
"iiiiiiiiiiiiiiiiiiiiishhvPTTPHMhmJPMhvVHPTIFhhiiii",
"iiiiiiiiiiiiiiiiiiiiii8ehmPTTTHhehZhhmITTPBsesiiii",
"iiiiiiiiiiiiiiiiiiiiii0eeegLTQSce8ggggTELBsssiiiii",
"iiiiiiiiiiiiiiiiiiiiii00008cSZjg08ggggCCNgiiiiiiii",
"iiiiiiiiiiiiiiiiiiiiii00000ggggi00ii00giiyiiiiiiii",
"iiiiiiiiiiiiiiiiiiiiii0000007077770000iii7iiiiiiii",
"iiiiiiiiiiiiiiiiiiiiiiiiiiiiiiiiiiiiiiiiiiiiiiiiii",
"iiiiiiiiiiiiiiiiiiiiiiiiiiiiiiiiiiiiiiiiiiiiiiiiii",
"iiiiiiiiiiiiiiiiiiiiiiiiiiiiiiiiiiiiiiiiiiiiiiiiii",
"iiiiiiiiiiiiiiiiiiiiiiiiiiiiiiiiiiiiiiiiiiiiiiiiii",
"iiiiiiiiiiiiiiiiiiiiiiiiiiiiiiiiiiiiiiiiiiiiiiiiii",
"iiiiiiiiiiiiiiiiiiiiiiiiiiiiiiiiiiiiiiiiiiiiiiiiii",
"iiiiiiiiiiiiiiiiiiiiiiiiiiiiiiiiiiiiiiiiiiiiiiiiii",
"iiiiiiiiiiiiiiiiiiiiiiiiiiiiiiiiiiiiiiiiiiiiiiiiii",
"iiiiiiiiiiiiiiiiiiiiiiiiiiiiiiiiiiiiiiiiiiiiiiiiii",
"iiiiiiiiiiiiiiiiiiiiiiiiiiiiiiiiiiiiiiiiiiiiiiiiii"
};
