/* XPM */
static char *_2fe5e821cc94beae3c76ca482fd0e6eWdKMaKIVgYr0TYnT[] = {
/* columns rows colors chars-per-pixel */
"50 50 204 2 ",
"   c None",
".  c #010101",
"X  c #090403",
"o  c #0B0C0C",
"O  c #090C00",
"+  c #140B05",
"@  c #1A0F07",
"#  c #130B09",
"$  c #1C140C",
"%  c #191204",
"&  c #161919",
"*  c #0C1010",
"=  c #270C0A",
"-  c #221306",
";  c #2A190B",
":  c #29170A",
">  c #331E0D",
",  c #29181B",
"<  c #371514",
"1  c #2B0D0E",
"2  c #3F2D00",
"3  c #38261A",
"4  c #381F28",
"5  c #1B3C3E",
"6  c #2B312F",
"7  c #342B3D",
"8  c #3D2E3F",
"9  c #34273C",
"0  c #2E3D3E",
"q  c #28383A",
"w  c #323C3C",
"e  c #3A3F3E",
"r  c #3F303F",
"t  c #272B29",
"y  c #541918",
"u  c #4B1717",
"i  c #4C2E16",
"p  c #4C2D19",
"a  c #452818",
"s  c #5D3D15",
"d  c #553319",
"f  c #5C361B",
"g  c #583617",
"h  c #4A220C",
"j  c #643B1D",
"k  c #6B3F1F",
"l  c #4B2E22",
"z  c #462E26",
"x  c #4C3025",
"c  c #4C3129",
"v  c #53352B",
"b  c #43353D",
"n  c #553637",
"m  c #6D3D3D",
"M  c #68383D",
"N  c #753D3E",
"B  c #743737",
"V  c #71312B",
"C  c #3C423D",
"Z  c #584311",
"A  c #634A02",
"S  c #7B5A06",
"D  c #6D4C15",
"F  c #51433B",
"G  c #595031",
"H  c #6C4129",
"J  c #7B4924",
"K  c #78482E",
"L  c #774529",
"P  c #6A4D39",
"I  c #634733",
"U  c #784830",
"Y  c #675435",
"T  c #715B29",
"R  c #7A642D",
"E  c #362C41",
"W  c #392D40",
"Q  c #3F3040",
"!  c #343D42",
"~  c #3C3D44",
"^  c #2F2B40",
"/  c #4C3340",
"(  c #493E41",
")  c #533642",
"_  c #5D3741",
"`  c #583A43",
"'  c #633942",
"]  c #6B3B42",
"[  c #603741",
"{  c #723B44",
"}  c #7B3752",
"|  c #354241",
" . c #3B4242",
".. c #324048",
"X. c #374C56",
"o. c #395E7A",
"O. c #2C4D65",
"+. c #534C47",
"@. c #5C524A",
"#. c #4D4B58",
"$. c #6A4447",
"%. c #7B4141",
"&. c #794645",
"*. c #465868",
"=. c #6A566D",
"-. c #42627B",
";. c #75607B",
":. c #8B2829",
">. c #8A2B27",
",. c #88273B",
"<. c #9F3D3D",
"1. c #BC3A3B",
"2. c #A53130",
"3. c #C83A3C",
"4. c #D83B3A",
"5. c #E03E3E",
"6. c #8B6901",
"7. c #916A0D",
"8. c #9C720C",
"9. c #9B691B",
"0. c #A47B04",
"q. c #A67A1A",
"w. c #854E26",
"e. c #864E29",
"r. c #80472C",
"t. c #8A5126",
"y. c #8A5128",
"u. c #875028",
"i. c #985728",
"p. c #944534",
"a. c #996521",
"s. c #976023",
"d. c #862442",
"f. c #932542",
"g. c #803955",
"h. c #844444",
"j. c #854944",
"k. c #824B4A",
"l. c #8B4647",
"z. c #974B45",
"x. c #8E5C57",
"c. c #955854",
"v. c #A54C46",
"b. c #AD4E47",
"n. c #B04F47",
"m. c #AF5048",
"M. c #B25047",
"N. c #B45149",
"B. c #BC5349",
"V. c #BE584E",
"C. c #A55B52",
"Z. c #B95D53",
"A. c #926C5B",
"S. c #9D7461",
"D. c #C05349",
"F. c #C45D52",
"G. c #CA5E53",
"H. c #CF6255",
"J. c #D16356",
"K. c #D86759",
"L. c #E56F5F",
"P. c #E8705F",
"I. c #E77060",
"U. c #E87060",
"Y. c #E97060",
"T. c #EB7160",
"R. c #EB7261",
"E. c #ED7261",
"W. c #F47362",
"Q. c #E76F60",
"!. c #AA8202",
"~. c #BC8B09",
"^. c #B98A06",
"/. c #AA841D",
"(. c #BC8C0A",
"). c #C59601",
"_. c #CB9B01",
"`. c #C99707",
"'. c #D09E01",
"]. c #CDA000",
"[. c #D4A302",
"{. c #DDAA01",
"}. c #DBA604",
"|. c #E1AF02",
" X c #B78868",
".X c #CE9874",
"XX c #C9946F",
"oX c #DAA179",
"OX c #E2A87D",
"+X c #3C739A",
"@X c #3D6D90",
"#X c #3B77A2",
"$X c #BC9B8A",
"%X c #D2AD9B",
"&X c #E8AE84",
"*X c #DAB6A1",
"=X c #E2BDA9",
"-X c #DAC4AC",
";X c #DFCEB6",
":X c #EBC9B2",
">X c #F7D6BD",
",X c #F1CBB2",
"<X c #F9DCC2",
"1X c #FCE1C7",
/* pixels */
"                                                                                                    ",
"                                                                                                    ",
"                                                                                                    ",
"                                  8 8 8 8 8 8 8 8 8 8 8 8 8                                         ",
"                                  ) ) ) ) ) ) ) ) ) ) ) ) )                                         ",
"                          W Q 8 $.T.L.L.L.L.L.L.L.L.L.L.L.T.k.7 r W                                 ",
"                          ) ` _ k.T.T.T.T.T.T.T.T.T.T.T.T.W.c._ _ )                                 ",
"                      8 ) b.B.T.T.L.L.I.T.T.T.T.T.T.T.T.L.L.T.T.F.b.' 8                             ",
"                      8 ) N.F.T.T.L.L.I.I.I.T.T.T.T.I.I.I.L.P.T.G.V.] 8                             ",
"                      7 ) L.T.L.L.T.T.I.I.T.T.T.T.T.I.I.I.I.I.L.L.T.&.7                             ",
"                      _ { L.L.T.L.T.I.I.I.I.T.T.T.T.T.I.T.T.L.T.L.T.l._                             ",
"                  8 ) b.N.L.I.T.T.T.I.I.I.I.T.T.T.T.T.I.T.T.T.T.L.T.V.n.' 8                         ",
"                  8 / v.N.L.Q.T.L.T.T.T.I.T.T.T.T.T.T.T.T.T.L.T.L.T.B.b.[ 8                         ",
"                  8 / v.N.P.T.L.T.T.T.T.I.I.T.T.T.T.T.T.T.T.I.L.T.T.V.b.' 8                         ",
"                  8 / b.N.J.K.L.L.L.L.T.L.I.I.I.T.T.T.T.L.L.L.P.K.J.N.n.[ 8                         ",
"                  8 / b.b.b.N.T.T.T.T.L.I.I.I.I.I.I.T.L.T.T.T.T.V.v.b.N._ 8                         ",
"                  8 / v.b.b.N.J.J.H.K.L.L.L.L.L.L.L.L.T.K.H.J.J.B.b.b.n._ 8                         ",
"                  8 ) M.N.N.b.b.b.b.V.T.T.W.W.W.W.W.T.W.G.b.b.b.b.N.N.B.' 8                         ",
"                l b / %.h.b.N.N.N.b.B.J.F.C.C.C.C.C.Z.J.V.b.N.N.m.M.l.h.) Q x                       ",
"              d d 9 7 7 / b.n.N.N.m.b.D.z.q 0 0 0 q j.D.b.m.n.N.b.M._ 7 7 9 l d                     ",
"              ; > A.S./ ) b.b.b.b.N.v.&.$. . . . . .$.&.z.N.b.b.b.M.' 8 A.S.3 :                     ",
"              . $ oXOX) ) N.N.N.N.N.z.q 0 0 0 0 0 0 0 5 &.N.N.N.N.B.' Q .X&X3 .                     ",
"              . $ .XoXv c ] { ] %.N.v.j.j.j.j.j.j.j.j.j.z.N.h.] ] { v c XXoX3 .                     ",
"              . $ oXOXj p 7 E E ` B.N.B.B.B.B.B.B.B.B.B.B.B.] ^ E E x d .X&X3 .                     ",
"                  P P p d K H x v ] ] ] ] ] ] ] ] ] ] ] ] ] n l H U d i I P                         ",
"                  . + i f t.e.i l W W W W W W W W W W W W E z i J i.j d - .                         ",
"                      - : f j J J U K K K K K K K K K K K U J J j j > -                             ",
"                      . + i f y.y.t.t.t.t.t.t.t.t.t.t.t.t.t.y.y.j p - .                             ",
"                          @ ; f j y.y.e.e.e.e.e.e.e.e.e.u.y.H f > @                                 ",
"                          . + i f y.y.y.y.e.y.y.t.e.y.t.y.y.j i $ .                                 ",
"                          w 6 + @ - > f j y.e.t.e.t.H f 3 - @ + t w                                 ",
"                           .w X X . : i f y.e.e.e.t.k i > . X . 6  .                                ",
"                      . o w e w G `.0.p d d d d d d d p 7._.T q w  .& .                             ",
"                      o & w C ~ Y }.^.i d s s s s s g a 8.{.R ~ e  .& o                             ",
"                  . o 0 w | ( d.p.}.!.% A _.).).(._.S + 6.{.i.d.) | w w & .                         ",
"                  F F @.+.w b f.p._.0.2 A _.)._.).[.6.2 6._.i.f.n w +.@.F F                         ",
"              %.k.-X;XoXXXo < 3.2.- A ].).).).).).).).[.S O >.4.y .  XoX-X;Xx.N                     ",
"              %.k.:X,X&X.XX 1 1.2.= A `.~._.).).)._.).`.S X >.3.u .  X&X:X>Xx.N                     ",
"              %.k.,X>X<X:X. = ,.,.i j r.9._._._._._.q.e.k i V f.< . *X1X>X>Xx.N                     ",
"              %.k.%X*X=X%X& , } { p D i.9.~.~.~.~.~.q.s.D i M g.4 . $X=X*X*Xx.N                     ",
"                  N N N N  .X.@X-.p S {.(.K e.r.e.K q.|.7.h *.+XX. .m N N N                         ",
"                  N N %.m 6 0 o.*.( Y !.8.a.a.a.9.a.9.!.T ( *.-...6 M %.N N                         ",
"                          . * w X.+Xo.% A }.'.[._.{.6.% O.#XX.w & .                                 ",
"                          . @ m $.;.=.& Z /.q./.q./.D & #.;.$.N , .                                 ",
"                          . 1 4.4.4.1. . .! ! ! ! ! ~ | <.4.4.5.y .                                 ",
"                          . = :.:.:.V w e C C C C C e 0 V :.:.:.< .                                 ",
"                              . . . .                   . . . .                                     ",
"                              X X X                       X X X                                     ",
"                                                                                                    ",
"                                                                                                    "
};
