/* XPM */
static char *_b54ae206e96425edf77c54d23e77cc6rabhiVfNQV1L6qnf[] = {
/* columns rows colors chars-per-pixel */
"50 50 213 2 ",
"   c None",
".  c #010101",
"X  c #090603",
"o  c #06090C",
"O  c #0A0C0C",
"+  c #04070C",
"@  c #150A07",
"#  c #1D1106",
"$  c #17110C",
"%  c #131514",
"&  c #221307",
"*  c #2B170B",
"=  c #331D0C",
"-  c #241513",
";  c #341F10",
":  c #2E2101",
">  c #3A2609",
",  c #28251A",
"<  c #3B2514",
"1  c #1D2222",
"2  c #142B3A",
"3  c #37262A",
"4  c #352B3E",
"5  c #3B2E3F",
"6  c #36293A",
"7  c #2C3332",
"8  c #2D3E3E",
"9  c #25363B",
"0  c #343C3C",
"q  c #383D3E",
"w  c #353739",
"e  c #2A2A33",
"r  c #5D1918",
"t  c #401010",
"y  c #4B2A0E",
"u  c #443200",
"i  c #472A15",
"p  c #4C2D15",
"a  c #482A16",
"s  c #592D1B",
"d  c #553416",
"f  c #543218",
"g  c #59351A",
"h  c #593B17",
"j  c #623A1D",
"k  c #6A3E1D",
"l  c #5A1C2B",
"z  c #482C28",
"x  c #493026",
"c  c #583827",
"v  c #412E38",
"b  c #443437",
"n  c #5B3C3C",
"m  c #7C2425",
"M  c #752223",
"N  c #6B3B25",
"B  c #67393A",
"V  c #733C3D",
"C  c #7A3F3F",
"Z  c #3A413F",
"A  c #684714",
"S  c #774D19",
"D  c #4F4139",
"F  c #4A483C",
"G  c #53463A",
"H  c #57402F",
"J  c #794723",
"K  c #76472D",
"L  c #784723",
"P  c #754730",
"I  c #7B403F",
"U  c #6B503C",
"Y  c #71533E",
"T  c #6B4E3A",
"R  c #342C41",
"E  c #3C2F41",
"W  c #293A48",
"Q  c #353D44",
"!  c #3F3642",
"~  c #2D2B41",
"^  c #423040",
"/  c #4C3340",
"(  c #513441",
")  c #5B3641",
"_  c #5B3944",
"`  c #553F50",
"'  c #6E3D42",
"]  c #673841",
"[  c #743E42",
"{  c #773B45",
"}  c #7D3449",
"|  c #344040",
" . c #3B4141",
".. c #39444B",
"X. c #394A58",
"o. c #2A475E",
"O. c #3C5467",
"+. c #2D516A",
"@. c #464443",
"#. c #5C4243",
"$. c #514845",
"%. c #5C5249",
"&. c #7C4143",
"*. c #7E4843",
"=. c #775649",
"-. c #7A5A54",
";. c #405E75",
":. c #7C5D74",
">. c #73556B",
",. c #88273D",
"<. c #962833",
"1. c #B93638",
"2. c #AD3236",
"3. c #C8363B",
"4. c #DD3B39",
"5. c #E23D3B",
"6. c #97641D",
"7. c #927519",
"8. c #A47C08",
"9. c #A17F1A",
"0. c #844D26",
"q. c #864E29",
"w. c #894B2B",
"e. c #8C5226",
"r. c #875028",
"t. c #895128",
"y. c #875027",
"u. c #92562B",
"i. c #935A25",
"p. c #845B3D",
"a. c #956021",
"s. c #9A6621",
"d. c #876E23",
"f. c #C17819",
"g. c #872A42",
"h. c #962743",
"j. c #814144",
"k. c #8A4445",
"l. c #874A45",
"z. c #934645",
"x. c #9A4946",
"c. c #AD4E47",
"v. c #A64D48",
"b. c #B14F47",
"n. c #B54F48",
"m. c #AF5048",
"M. c #B25047",
"N. c #B25048",
"B. c #BC5348",
"V. c #B85047",
"C. c #AB5B52",
"Z. c #A75551",
"A. c #B75E55",
"S. c #976B59",
"D. c #977259",
"F. c #8F715B",
"G. c #A36D59",
"H. c #A77B5B",
"J. c #9D7B61",
"K. c #A57A64",
"L. c #C45C51",
"P. c #CC6154",
"I. c #C86359",
"U. c #D36457",
"Y. c #D96759",
"T. c #DB6A5C",
"R. c #D56558",
"E. c #E76F5F",
"W. c #E66F5F",
"Q. c #E46E5F",
"!. c #E16C5D",
"~. c #E8705F",
"^. c #E66F60",
"/. c #E87060",
"(. c #E97060",
"). c #EB7161",
"_. c #EE7261",
"`. c #EF7462",
"'. c #E77060",
"]. c #F17361",
"[. c #AB8201",
"{. c #BD8E05",
"}. c #B58807",
"|. c #BE9101",
" X c #BC920E",
".X c #A88318",
"XX c #B38715",
"oX c #C69601",
"OX c #C69B03",
"+X c #CB9B01",
"@X c #C89507",
"#X c #C9990A",
"$X c #D8A500",
"%X c #CFA000",
"&X c #B48667",
"*X c #D49B74",
"=X c #CE9A74",
"-X c #D7A278",
";X c #E0A77C",
":X c #39698A",
">X c #3A7298",
",X c #426887",
"<X c #447397",
"1X c #C49B8C",
"2X c #CEAD9A",
"3X c #E8AE83",
"4X c #F7BB8B",
"5X c #EBB081",
"6X c #DCB5A2",
"7X c #F1CEB6",
"8X c #F5D4BB",
"9X c #E7CDB6",
"0X c #FCDBC1",
/* pixels */
"                                                                                                    ",
"                                  5 5 5 5 5 5 5 5 5 5 5 5 5 5                                       ",
"                                  / ( ( ( ( ( ( ( ( ( ( ( ( (                                       ",
"                            E 5 4 C.T.T.T.T.T.T.T.T.T.T.T.T.U.^ 5 E E                               ",
"                          / / ( / A.]././././././././././._.T._ ( / /                               ",
"                        5 j.c.P.^.W./.W.W.W.W.W.W.W.W.W.W./.W.^.T.m.z.5 v                           ",
"                        5 k.B.R._./.'.^././././././././././.~._.!.B.v.5 v                           ",
"                        4 Z.].W.W././././././././././././././.W.^._.I.4 5                           ",
"                      ) n C.].W.W././././././././././././././.W.W._.I.) )                           ",
"                    5 j.V.P./.W././././././././././././././././.W./.Y.M.z.5 ^                       ",
"                    5 j.b.P./.W././././././././././././././././.W./.Y.b.z.5 ^                       ",
"                    5 j.b.P.`./.W././././././././././././././.W./._.T.b.z.5 ^                       ",
"                    5 j.M.L.Y.!./.W.W.W././././././.^././.W.W./.W.Y.P.M.z.5 ^                       ",
"                    5 &.V.c.v.U._./././.W././././././././././._.!.c.c.N.z.5 ^                       ",
"                    5 &.N.c.c.L.R.U.U.!./.W.W.W.W.W.W.W.W.R.U.R.P.m.c.M.z.5 ^                       ",
"                    5 j.B.N.N.c.c.c.c.T.`._.].].].].]./.W.m.c.c.c.c.M.V.z.5 ^                       ",
"                  b E ] k.x.N.c.N.N.c.L.U.A.C.C.C.C.C.P.P.N.N.N.N.M.v.k.[ ^ b                       ",
"                d z 4 4 4 j.M.c.N.b.m.b.V.#.8 0 8 8 q c.V.m.m.N.c.N.z.4 5 4 v f f                   ",
"                = n K.=.4 j.N.c.c.c.N.l.l.$. . . . .@.*.l.c.m.c.c.M.z.5 #.K.=.= ;                   ",
"                . Y 4XK.4 k.B.N.V.M.N.#.9 8 8 8 8 8 8 8 b c.N.V.V.B.x.R -.4XH.. X                   ",
"                . T 5XD.3 B &.[ [ x.N.l.*.*.*.*.*.*.*.l.l.m.c.&.[ &.V z =.3XH.. X                   ",
"                . Y 4XH.y b R R ~ z.B.V.B.B.B.B.B.B.B.B.V.V.c.E R R 5 y p.4X&X. X                   ",
"                  x U c p c P c x B [ ' ' ' ' ' ' ' ' ' ' [ ' x c P N p c U H                       ",
"                    . = f L i.k p 6 R R 4 R R R R R R R R R 5 p g u.0.f < . .                       ",
"                      # & i j N J K P P P P P P P P P P K P K J L j f & #                           ",
"                        . = p L u.e.e.e.e.e.e.e.e.e.e.e.e.e.e.u.q.f < . .                           ",
"                          # & i j J y.q.r.q.q.q.r.q.q.q.q.y.0.j f & &                               ",
"                          O X < f J u.y.y.y.q.y.y.y.y.y.y.u.t.g i . .                               ",
"                    C n Z w w , # * = f j J y.r.r.r.q.j g = = # #                                   ",
"                    I n Z Z ..1 . X X i f J y.y.q.r.q.f i @ X . .                                   ",
"                V S.*XF.8 Z Z 0 9 d.}.A a g g g g g g f h }.8.0 7 . .                               ",
"                V G.5XJ.q  .q  .Q 9.$XS p d d d d p p d A +X#X@.0 . X                               ",
"                V G.;X=X-XF.8 ] g.N h 8.oX{.|.oX{.: # {. XG F Z q 0 q  . .                          ",
"                V G.-X=X-XD.9 B h.N h }.$X+X+X+X+Xu : |. X@.! q  .$.@.q q                           ",
"                  *.l.B < - o m 3.f.OXoXoXoXoXoXoXoX|.u > ,.} q %.-XH.% O                           ",
"                    &.z . . . m 3.9.OXoXoXoXoXoXoX@X{.> * ,.g.w %.3X&XD D                           ",
"                          . . l h.w.r. X%X+X+X+X+Xi.0.f s 3.1.@ D 7X9X9X2XV &.                      ",
"                          O O l g.w.i.XX@X{.{.@X{.6.e.f s 1.2.@ D 7X7X8X2XV &.                      ",
"                           . .Z W 9.$Xs.q.q.q.q.r.@X+Xh s ,.,.@ D 8X8X0X2XV &.                      ",
"                          7 7 Q X.d.[.6.i.a.a.a.a.8.8.g x } { @ b 6X6X6X1XV                         ",
"                          . . o.<X9 . [.$X+X+X%X+X: @ | ..<X:Xo - V V V V                           ",
"                          . . W ,XW 2 d.XX.X.X.X.X, % 7 8 +.+.O - [ V V                             ",
"                          . . e Z ;.<XX.0 Q ..Q Q  .Z O . o +                                       ",
"                            . 1 7 O.,XO.X.0 7 q  .q 0 o . . .                                       ",
"                              . . +.>X:X>X2 .                                                       ",
"                              . . ` :.>.:.3 .                                                       ",
"                              . . <.5.3.4.r .                                                       ",
"                                . r m M m t .                                                       ",
"                                  . . . .                                                           ",
"                                                                                                    "
};
