/* XPM */
static char *b04dd534fd31483adf4c1326c109f69ecAhxmxgVVhh09FyO[] = {
/* columns rows colors chars-per-pixel */
"50 50 213 2 ",
"   c None",
".  c #010101",
"X  c #090603",
"o  c #06090C",
"O  c #0A0C0C",
"+  c #04070C",
"@  c #150A07",
"#  c #1D1106",
"$  c #17110C",
"%  c #131514",
"&  c #221307",
"*  c #2B170B",
"=  c #331D0C",
"-  c #241513",
";  c #341F10",
":  c #2E2101",
">  c #3A2609",
",  c #28251A",
"<  c #3B2514",
"1  c #1D2222",
"2  c #142B3A",
"3  c #37262A",
"4  c #352B3E",
"5  c #3B2E3F",
"6  c #36293A",
"7  c #2C3332",
"8  c #2D3E3E",
"9  c #25363B",
"0  c #343C3C",
"q  c #383D3E",
"w  c #353739",
"e  c #2A2A33",
"r  c #5D1918",
"t  c #401010",
"y  c #4B2A0E",
"u  c #443200",
"i  c #472A15",
"p  c #4C2D15",
"a  c #482A16",
"s  c #592D1B",
"d  c #553416",
"f  c #543218",
"g  c #59351A",
"h  c #593B17",
"j  c #623A1D",
"k  c #6A3E1D",
"l  c #5A1C2B",
"z  c #482C28",
"x  c #493026",
"c  c #583827",
"v  c #412E38",
"b  c #443437",
"n  c #5B3C3C",
"m  c #7C2425",
"M  c #752223",
"N  c #6B3B25",
"B  c #67393A",
"V  c #733C3D",
"C  c #7A3F3F",
"Z  c #3A413F",
"A  c #684714",
"S  c #774D19",
"D  c #4F4139",
"F  c #4A483C",
"G  c #53463A",
"H  c #57402F",
"J  c #794723",
"K  c #76472D",
"L  c #784723",
"P  c #754730",
"I  c #7B403F",
"U  c #6B503C",
"Y  c #71533E",
"T  c #6B4E3A",
"R  c #342C41",
"E  c #3C2F41",
"W  c #293A48",
"Q  c #353D44",
"!  c #3F3642",
"~  c #2D2B41",
"^  c #423040",
"/  c #4C3340",
"(  c #513441",
")  c #5B3641",
"_  c #5B3944",
"`  c #553F50",
"'  c #6E3D42",
"]  c #673841",
"[  c #743E42",
"{  c #773B45",
"}  c #7D3449",
"|  c #344040",
" . c #3B4141",
".. c #39444B",
"X. c #394A58",
"o. c #2A475E",
"O. c #3C5467",
"+. c #2D516A",
"@. c #464443",
"#. c #5C4243",
"$. c #514845",
"%. c #5C5249",
"&. c #7C4143",
"*. c #7E4843",
"=. c #775649",
"-. c #7A5A54",
";. c #405E75",
":. c #7C5D74",
">. c #73556B",
",. c #88273D",
"<. c #962833",
"1. c #B93638",
"2. c #AD3236",
"3. c #C8363B",
"4. c #DD3B39",
"5. c #E23D3B",
"6. c #97641D",
"7. c #927519",
"8. c #A47C08",
"9. c #A17F1A",
"0. c #844D26",
"q. c #864E29",
"w. c #894B2B",
"e. c #8C5226",
"r. c #875028",
"t. c #895128",
"y. c #875027",
"u. c #92562B",
"i. c #935A25",
"p. c #845B3D",
"a. c #956021",
"s. c #9A6621",
"d. c #876E23",
"f. c #C17819",
"g. c #872A42",
"h. c #962743",
"j. c #814144",
"k. c #8A4445",
"l. c #874A45",
"z. c #934645",
"x. c #9A4946",
"c. c #AD4E47",
"v. c #A64D48",
"b. c #B14F47",
"n. c #B54F48",
"m. c #AF5048",
"M. c #B25047",
"N. c #B25048",
"B. c #BC5348",
"V. c #B85047",
"C. c #AB5B52",
"Z. c #A75551",
"A. c #B75E55",
"S. c #976B59",
"D. c #977259",
"F. c #8F715B",
"G. c #A36D59",
"H. c #A77B5B",
"J. c #9D7B61",
"K. c #A57A64",
"L. c #C45C51",
"P. c #CC6154",
"I. c #C86359",
"U. c #D36457",
"Y. c #D96759",
"T. c #DB6A5C",
"R. c #D56558",
"E. c #E76F5F",
"W. c #E66F5F",
"Q. c #E46E5F",
"!. c #E16C5D",
"~. c #E8705F",
"^. c #E66F60",
"/. c #E87060",
"(. c #E97060",
"). c #EB7161",
"_. c #EE7261",
"`. c #EF7462",
"'. c #E77060",
"]. c #F17361",
"[. c #AB8201",
"{. c #BD8E05",
"}. c #B58807",
"|. c #BE9101",
" X c #BC920E",
".X c #A88318",
"XX c #B38715",
"oX c #C69601",
"OX c #C69B03",
"+X c #CB9B01",
"@X c #C89507",
"#X c #C9990A",
"$X c #D8A500",
"%X c #CFA000",
"&X c #B48667",
"*X c #D49B74",
"=X c #CE9A74",
"-X c #D7A278",
";X c #E0A77C",
":X c #39698A",
">X c #3A7298",
",X c #426887",
"<X c #447397",
"1X c #C49B8C",
"2X c #CEAD9A",
"3X c #E8AE83",
"4X c #F7BB8B",
"5X c #EBB081",
"6X c #DCB5A2",
"7X c #F1CEB6",
"8X c #F5D4BB",
"9X c #E7CDB6",
"0X c #FCDBC1",
/* pixels */
"                                                                                                    ",
"                                      5 5 5 5 5 5 5 5 5 5 5 5 5 5                                   ",
"                                      ( ( ( ( ( ( ( ( ( ( ( ( ( /                                   ",
"                              E E 5 ^ U.T.T.T.T.T.T.T.T.T.T.T.T.C.4 5 E                             ",
"                              / / ( _ T._././././././././././.].A./ ( / /                           ",
"                          v 5 z.c.Y.^.E./.E.E.E.E.E.E.E.E.E.E./.E.^.P.c.j.5                         ",
"                          v 5 v.B.!._.~././././././././././.^.'./._.U.B.k.5                         ",
"                          5 4 I._.^.E././././././././././././././.E.E.].Z.6                         ",
"                          ) ) I._.E.E././././././././././././././.E.E.].C.n )                       ",
"                      ^ 5 z.M.Y./.E././././././././././././././././.E./.P.B.j.5                     ",
"                      ^ 5 z.b.Y./.E././././././././././././././././.E./.P.b.j.5                     ",
"                      ^ 5 z.b.T._./.E././././././././././././././.E./.`.P.b.j.5                     ",
"                      ^ 5 z.M.P.Y.E./.E.E././.^././././././.E.E.E./.!.Y.L.M.j.5                     ",
"                      ^ 5 z.N.c.c.!._././././././././././.E./././._.U.v.c.B.&.5                     ",
"                      ^ 5 z.M.c.m.P.U.U.U.E.E.E.E.E.E.E.E./.!.U.U.R.L.c.c.N.&.5                     ",
"                      ^ 5 x.B.M.c.c.v.v.m.E./.].].].].]._.`.Y.v.c.v.c.N.N.B.j.5                     ",
"                      b ^ [ k.v.M.N.N.N.N.P.P.C.C.C.C.C.A.U.L.c.N.N.c.N.x.k.] E b                   ",
"                  f f v 6 5 4 z.N.c.N.N.m.V.c.q 8 8 0 8 #.V.b.m.b.N.c.N.j.4 5 4 z d                 ",
"                  ; = =.K.#.5 x.M.c.c.N.c.l.*.@. . . . .$.l.l.N.c.c.c.N.j.6 =.K.n =                 ",
"                  X . H.4X-.R x.B.B.B.N.c.b 8 8 8 8 8 8 8 9 #.N.M.B.M.L.k.4 K.4XY .                 ",
"                  X . H.3X=.z V &.{ &.v.m.l.l.*.*.*.*.*.*.*.l.N.x.{ { &.B 3 D.3XT .                 ",
"                  X . &X4Xp.y 5 R R E v.B.B.B.B.B.B.B.B.B.B.B.B.z.~ R R b y H.4XY .                 ",
"                      H U c p N P c x ' [ ' ' ' ' ' ' ' ' ' ' [ B x c P c p c U x                   ",
"                      . . < f 0.u.g p 5 R R R R R R R R R R R R 6 p k i.L f = .                     ",
"                          # & f j L J K P K P P P P P P P P P P K L N j i & #                       ",
"                          . . < f q.u.e.e.e.e.e.e.e.e.e.e.e.e.e.t.u.L p = .                         ",
"                              & & f j 0.t.q.q.q.q.r.q.q.q.q.q.t.L j i & #                           ",
"                              . . i g t.u.t.t.q.t.t.t.q.t.t.t.u.J d < o O                           ",
"                                  # # = = g j q.t.t.r.t.J j f = * # , w w | n C                     ",
"                                  . . X @ i f q.t.t.y.t.J f i X X . 1 .. .| n I                     ",
"                              . . 7 0 8.}.h f g g g g g g a A |.d.9 w  . .0 F.*XS.V                 ",
"                              o . 0 @.#X+XA d p p d d d d p S $X9.Q  .q  .q J.5XG.V                 ",
"                           . .q 0 q Z F G  X{.# : {.oX|.{.oX8.h N g.] 8 F.-X=X;XG.V                 ",
"                          q q @.$. .q ! @. X|.: u +X+X+X+X$X}.h N h.B 9 D.-X=X-XG.V                 ",
"                          O $ H.-X%.q } ,.> u |.oXoXoXoXoXoXoXOXf.3.m o - < B l.*.                  ",
"                          D D &X3X%.w g.,.* > {.@XoXoXoXoXoXoXOXf.3.m . . . z &.                    ",
"                      &.V 2X9X9X7XD @ 1.3.s f 0.i.+X+X+X+X%X Xr.w.h.l . .                           ",
"                      &.V 2X8X7X7XD @ 2.1.s f e.6.{.oX{.{.oXXXi.w.g.l O O                           ",
"                      &.V 2X0X8X8XD @ ,.,.s h +X@Xr.q.q.q.q.s.$X9.W Z  . .                          ",
"                        V 1X6X6X6Xb @ { } x g 8.8.a.a.a.a.i.6.[.d.X.Q 7 7                           ",
"                          V V V V - o :X<X..| @ : +X%X+X+X$X[.. 9 <Xo.. .                           ",
"                            V V [ - O +.+.8 7 % , .X.X.X.XXXd.2 W ,XW . .                           ",
"                                      + o . O Z  .Q Q ..Q 0 X.<X;.Z e . .                           ",
"                                      . . . o 0 q  .q 7 0 X.O.,XO.7 1 .                             ",
"                                                      . 2 >X:X>X+.. .                               ",
"                                                      . 3 :.>.:.` . .                               ",
"                                                      . r 4.3.5.<.. .                               ",
"                                                      . t m M m r .                                 ",
"                                                          . . . .                                   ",
"                                                                                                    "
};
