/* XPM */
static char *_3e9fb8787734198fa4a81f80608180dlIorXm4WnHCgvft9[] = {
/* columns rows colors chars-per-pixel */
"50 50 220 2 ",
"   c None",
".  c #010101",
"X  c #0B0B0C",
"o  c #0A0504",
"O  c #170C0A",
"+  c #1D130D",
"@  c #191817",
"#  c #0D0F15",
"$  c #2B140F",
"%  c #271716",
"&  c #311111",
"*  c #18201C",
"=  c #35251A",
"-  c #2D201F",
";  c #291D29",
":  c #1A2732",
">  c #232826",
",  c #392B26",
"<  c #3A312C",
"1  c #262C38",
"2  c #342B3D",
"3  c #3A2E3E",
"4  c #332834",
"5  c #2B353A",
"6  c #373737",
"7  c #24312A",
"8  c #101922",
"9  c #441C19",
"0  c #571818",
"q  c #691E1E",
"w  c #4A2D16",
"e  c #533219",
"r  c #663E1C",
"t  c #552D2E",
"y  c #453429",
"u  c #523929",
"i  c #44373B",
"p  c #5D3131",
"a  c #6B373A",
"s  c #753B3C",
"d  c #6B312A",
"f  c #38423F",
"g  c #54493A",
"h  c #514A3C",
"j  c #685A31",
"k  c #624836",
"l  c #1F3342",
"z  c #392E40",
"x  c #273949",
"c  c #323C42",
"v  c #313D48",
"b  c #243C50",
"n  c #483242",
"m  c #5D3943",
"M  c #553742",
"N  c #653B44",
"B  c #6B3D45",
"V  c #753D42",
"C  c #324242",
"Z  c #274157",
"A  c #374857",
"S  c #37566A",
"D  c #494542",
"F  c #574C50",
"G  c #664B4A",
"H  c #6B4D4B",
"J  c #684647",
"K  c #7A4243",
"L  c #794648",
"P  c #69554B",
"I  c #73534E",
"U  c #7B5D48",
"Y  c #6D5154",
"T  c #745752",
"R  c #654551",
"E  c #7B6253",
"W  c #5C5868",
"Q  c #425B71",
"!  c #635C6E",
"~  c #7F5462",
"^  c #62626F",
"/  c #6D6471",
"(  c #796A72",
")  c #456175",
"_  c #A93019",
"`  c #872120",
"'  c #863C3C",
"]  c #8C3229",
"[  c #B73636",
"{  c #B83132",
"}  c #C53535",
"|  c #D53938",
" . c #C22A32",
".. c #E13E3E",
"X. c #BC7B1B",
"o. c #93522B",
"O. c #AF493D",
"+. c #AC4537",
"@. c #B54A3E",
"#. c #AF7924",
"$. c #C67B1E",
"%. c #824B4A",
"&. c #86474B",
"*. c #8E564F",
"=. c #AD4D45",
"-. c #A84B45",
";. c #B04D44",
":. c #AD5048",
">. c #B35249",
",. c #BB554B",
"<. c #B75349",
"1. c #A85855",
"2. c #8B6759",
"3. c #9A745A",
"4. c #986D51",
"5. c #A67657",
"6. c #9A6E64",
"7. c #836D74",
"8. c #897578",
"9. c #8F7062",
"0. c #B36465",
"q. c #BA6773",
"w. c #B5757B",
"e. c #A87374",
"r. c #BB5862",
"t. c #CB5E52",
"y. c #C35A4F",
"u. c #CE6155",
"i. c #D26356",
"p. c #E86957",
"a. c #E66F5F",
"s. c #E86F5F",
"d. c #E9705F",
"f. c #EB614D",
"g. c #CC7276",
"h. c #E66F60",
"j. c #E77060",
"k. c #E97160",
"l. c #F17462",
"z. c #BB8D13",
"x. c #CD9C04",
"c. c #CF960B",
"v. c #D4A303",
"b. c #BE8D6C",
"n. c #B08368",
"m. c #AF8B77",
"M. c #9E8373",
"N. c #C8926D",
"B. c #D3966E",
"V. c #CB9672",
"C. c #C99672",
"Z. c #D49C75",
"A. c #DB9D73",
"S. c #D39570",
"D. c #C28B68",
"F. c #DBA27A",
"G. c #D9A177",
"H. c #E1A57B",
"J. c #E5A67B",
"K. c #E7857D",
"L. c #3B6181",
"P. c #49779B",
"I. c #466881",
"U. c #7C768A",
"Y. c #4B7CA4",
"T. c #887A8E",
"R. c #B87B8D",
"E. c #87839A",
"W. c #B38595",
"Q. c #AE8D90",
"!. c #9794A8",
"~. c #B596AA",
"^. c #B596AA",
"/. c #B69EB6",
"(. c #AFA5B6",
"). c #C89D89",
"_. c #C2828E",
"`. c #E99691",
"'. c #D7A686",
"]. c #CAA291",
"[. c #D1A891",
"{. c #E6AD85",
"}. c #E4B18E",
"|. c #E5B696",
" X c #CF95A4",
".X c #CBA1A6",
"XX c #D7BCA8",
"oX c #CCB2B6",
"OX c #E7ABAE",
"+X c #E8B3B5",
"@X c #EBC4AC",
"#X c #EBCBB4",
"$X c #F4CCB4",
"%X c #F4CFB9",
"&X c #F5D2B9",
"*X c #F9D2BA",
"=X c #F6D4BB",
"-X c #BBA9C4",
";X c #B6B5D6",
":X c #BABCDD",
">X c #B7B6DD",
",X c #A9A0C9",
"<X c #B9BEE1",
"1X c #B1BCE3",
"2X c #DBBCC9",
"3X c #BBC1E4",
"4X c #B6C3E9",
"5X c #B9CAF0",
"6X c #CFC4D3",
"7X c #FBD9C2",
"8X c #FCE4CA",
"9X c #C6C7E5",
"0X c #DADAEC",
"qX c #D0D1E6",
"wX c #CBD3E8",
"eX c #ECEDF9",
"rX c #ECEDF7",
"tX c #E9F4F8",
"yX c #F3F6FA",
"uX c #EEE9E5",
/* pixels */
"                                                                                                    ",
"                                  3 3 3 3 3 3 3 3 3 3 3 3 3                                         ",
"                                  B N N N N N N N N N N N B                                         ",
"                          z 3 2 B k.k.a.s.s.s.s.s.s.s.s.j.l.&.2 3 z                                 ",
"                          m N J *.k.h.h.h.j.j.j.j.j.j.j.a.k.1.B N m                                 ",
"                      3 M =.,.l.k.a.a.k.k.k.k.k.k.k.k.k.k.a.k.l.y.>.N 3                             ",
"                      3 n -.<.k.k.j.k.k.k.k.k.k.k.k.k.k.a.k.h.k.,.-.N 3                             ",
"                      3 M ,.t.k.j.k.k.k.k.k.k.k.k.k.k.k.k.k.a.k.t.y.B 3                             ",
"                      3 m h.k.j.k.k.k.k.k.k.k.k.k.k.k.k.k.k.k.a.j.k.L 3                             ",
"                      3 m a.a.k.a.k.k.s.k.k.k.k.k.k.k.s.k.k.a.k.a.s.L 3                             ",
"                      2 M a.k.j.k.k.k.k.s.p.p.p.p.p.s.k.s.k.s.a.j.k.L 2 n                           ",
"                  3 i V &.t.i.a.a.a.j.a.K.+XOXOXOX+X`.a.j.a.a.k.i.u.&.V n 3                         ",
"                  n M >.<.-.<.k.k.k.k.f.`.tXtXtXtXtX+Xf.k.k.k.k.,.-.<.,.N n                         ",
"                  ; , -.=.=.<.u.u.t.g. XoXeX6X.X6XeX2X Xg.t.u.u.,.=.=.>.t ;                         ",
"                  . & -.>.=.=.=.:.=.w.1X9XyXoX_ .XyXqX4XW.O.:.=.=.=.=.<.9 .                         ",
"                  . & -.:.=.>.>.>.;.w.<X-X.X_.=.w..XoX3XW.;.>.>.:.;.=.<.9 .                         ",
"                  . & =.<.:.;.O.O.+.q.4X^._ +.O.+._ W.5XR.+.=.O.=.:.;.,.9 .                         ",
"                  . O a V =.1.~.~.~./.:X-X~.~.~.~.~.-X:X/.~.~.^.0.;.K B % .                         ",
"              w w o X 2 n -.0.3X3X<X:X;X:X<X<X<X<X<X:X;X:X<X<X4Xw.O.m z @ . w e                     ",
"              e e O O 2 n ;.0.3X:X;X;X;X;X;X;X;X;X;X;X;X;X;X:X3Xw.@.N z @ o w e                     ",
"              + $ 4.5.G G N J ! U.:X9X0X0X0X0X0X0X0X0X0X9X:XE.! R a G G 4.5.= O                     ",
"              . + A.H.T I z 3 4 W <X9XrXrXrXrXrXeXeXeXeXqX9X( ; 3 3 H I S.J.= .                     ",
"              . + N.B.h i G H G Y 7.7.8.7./ / / / / ( 8.7.7.T G H H D i D.A.= .                     ",
"              . + B.Z.i 6 I I I I H H J J 3 i i i 3 M J H H I I I I i 6 D.A.= .                     ",
"                  u u 4 h C.b.H 2.Z.n.i T V.N.C.N.Z.2.6 U.,X7.J n.Z.P 6 y u                         ",
"                  . X 4 h G.V.I 2.{.b.4 E J.F.H.F.{.3.7 T.>XT.H b.J.P 5 @ .                         ",
"                      X , Z.F.V.[.uXoX@ E &X@X$X@X=XM.@ !.eX.XN.Z.H.k X                             ",
"                      . = V.Z.A.[.yX6X< 2.=X$X*X$X7Xm.< (.yXXXA.Z.F.g .                             ",
"                          O y F.}.7X%XXX@X&X$X&X&X*X#XXX#X7X}.H.k o                                 ",
"                          . = V.'.$X$X&X=X&X$X$X$X&X=X&X$X$X'.Z.u .                                 ",
"                          . + I 2.F.}.=X=X=X@XZ.|.=X=X=X|.H.3.I - .                                 ",
"                          X % U 4.N.).XXXX$X|.B.}.$X@XXX[.V.4.*., X                                 ",
"                      . X c g x.z.Y G 6 E J.F.F.F.J.3.6 G Y z.v.j v @ .                             ",
"                      @ @ c g x.z.&.I W ( N.b.D.b.N.9.W I L #.v.j v > @                             ",
"                  s a 6 5 c g x.c.} q.9X!., 6 6 6 , E.wXR. .$.v.j c 5 5 a s                         ",
"                  6.6.T P c g z.X.[ r.-XW.^ F 6 F ^ T.-Xq.{ #.z.j c P T 6.6.                        ",
"              K %.#X=XH.V.D D o.o.} }  .q.9X!.7 U.9XR.{ } } +.o.g C b.H.#X7X2.s                     ",
"              K %.@X$X}.'.6 < r d [ [ { q.:XE.7 U.<XR.} [ [ ] r y 7 C.}.@X=X*.s                     ",
"              K %.$X7X8X#X. . . $ L &.} g.9X!.7 T.wX_.| -.L = . . . XX8X=X7X2.s                     ",
"              K %.).].].Q.. X l 1 t p ` &.E.! * W E.~ ` d t 4 l # . m.[.).].*.s                     ",
"                  a a s a o 8 P.L.X . . . . . . . . . . . . S Y.: . p s a a                         ",
"                    K &.a . # Q A > 1 b x b 1 @ 1 b x b 1 > A Q : . p &.s K                         ",
"                          . X 5 f C S Y.P.Y.I.f ) Y.P.Y.S C C 5 @ .                                 ",
"                          . O ' ' ' V Z Z Z x > 5 Z Z Z m ' ' ' & .                                 ",
"                          . & | | ..{ o . . . . . . . o ] ..| ..0 .                                 ",
"                            O q q q 0                   0 q q q &                                   ",
"                              . . . .                   . . . .                                     ",
"                                                                                                    ",
"                                                                                                    ",
"                                                                                                    "
};
