/* XPM */
static char *a137772ef8ab47e7b174a1a76867f6a4zxVqtquxAKWCZ8sO[] = {
/* columns rows colors chars-per-pixel */
"50 50 221 2 ",
"   c None",
".  c #020101",
"X  c #0A0A09",
"o  c #160404",
"O  c #16100C",
"+  c #111212",
"@  c #161A1B",
"#  c #1A1D1D",
"$  c #1A1517",
"%  c #0B1419",
"&  c #241B19",
"*  c #3F1717",
"=  c #1C201F",
"-  c #2B2117",
";  c #392517",
":  c #3B3100",
">  c #1B1520",
",  c #281B2A",
"<  c #1D2324",
"1  c #16232B",
"2  c #1D2D3C",
"3  c #222524",
"4  c #282827",
"5  c #342525",
"6  c #352C3E",
"7  c #3B2E3F",
"8  c #352635",
"9  c #2C3132",
"0  c #2D363B",
"q  c #373939",
"w  c #272B36",
"e  c #402612",
"r  c #57341A",
"t  c #432C23",
"y  c #4C2D37",
"u  c #483737",
"i  c #4F3629",
"p  c #782222",
"a  c #73332E",
"s  c #6E3537",
"d  c #673A3D",
"f  c #723A3D",
"g  c #7A3937",
"h  c #400E0E",
"j  c #3D413C",
"k  c #4A443B",
"l  c #50403D",
"z  c #684736",
"x  c #79413F",
"c  c #76523C",
"v  c #6B5635",
"b  c #73622F",
"n  c #3D2F40",
"m  c #293A48",
"M  c #373D40",
"N  c #433140",
"B  c #4A3543",
"V  c #47374A",
"C  c #5C3944",
"Z  c #523842",
"A  c #6D3C43",
"S  c #354043",
"D  c #3C4444",
"F  c #3F4949",
"G  c #3C4C57",
"H  c #274156",
"J  c #3E5566",
"K  c #3C5C73",
"L  c #434542",
"P  c #424B4B",
"I  c #594246",
"U  c #574346",
"Y  c #524756",
"T  c #6B4341",
"R  c #684A46",
"E  c #7D4443",
"W  c #72524E",
"Q  c #644A56",
"!  c #7A5853",
"~  c #6F504D",
"^  c #5A5963",
"/  c #645B69",
"(  c #686773",
")  c #7D737C",
"_  c #8A3631",
"`  c #B93838",
"'  c #A92E2E",
"]  c #C83B3C",
"[  c #C52C2E",
"{  c #98621D",
"}  c #974438",
"|  c #835434",
" . c #A7533C",
".. c #906F32",
"X. c #AC762A",
"o. c #CA7127",
"O. c #9E3D44",
"+. c #874647",
"@. c #994946",
"#. c #984845",
"$. c #855C57",
"%. c #A14942",
"&. c #AC4D46",
"*. c #AC4E49",
"=. c #B14D43",
"-. c #AE5149",
";. c #A5504B",
":. c #B25149",
">. c #BA5349",
",. c #B35147",
"<. c #A35350",
"1. c #AB5652",
"2. c #B05552",
"3. c #BC5C54",
"4. c #BB4F57",
"5. c #8A6B57",
"6. c #9B775A",
"7. c #946D4B",
"8. c #A8775A",
"9. c #B36F5C",
"0. c #BC5963",
"q. c #8F6E73",
"w. c #A47B63",
"e. c #B3757D",
"r. c #B06F64",
"t. c #C55B4F",
"y. c #C85E52",
"u. c #C46258",
"i. c #D66659",
"p. c #E66F5F",
"a. c #E86D5C",
"s. c #EA634D",
"d. c #C15463",
"f. c #E77162",
"g. c #E97060",
"h. c #F57562",
"j. c #F97964",
"k. c #CA7574",
"l. c #CA9908",
"z. c #D8A500",
"x. c #AD8263",
"c. c #AE8169",
"v. c #BD8B6C",
"b. c #B7886A",
"n. c #B88975",
"m. c #B08D78",
"M. c #C6A65F",
"N. c #C58D6C",
"B. c #CB9570",
"V. c #D59D75",
"C. c #D69C74",
"Z. c #DBA27A",
"A. c #D8A078",
"S. c #E2A57A",
"D. c #E6A97B",
"F. c #EAA87A",
"G. c #F6AF7F",
"H. c #3F6786",
"J. c #416A8B",
"K. c #436E91",
"L. c #467296",
"P. c #78788C",
"I. c #8F798C",
"U. c #B87B81",
"Y. c #AC7A88",
"T. c #8C8B9A",
"R. c #BE8384",
"E. c #B98393",
"W. c #B79485",
"Q. c #9B94AC",
"!. c #948DAC",
"~. c #A295AB",
"^. c #B89FB8",
"/. c #BB97A7",
"(. c #9EA0BE",
"). c #ACA6B2",
"_. c #A1A1BC",
"`. c #B1AAAD",
"'. c #C59D89",
"]. c #CC8D97",
"[. c #E79C9A",
"{. c #E78C85",
"}. c #C8A595",
"|. c #DBAD8F",
" X c #E0AC88",
".X c #E9BA9B",
"XX c #EFAB8B",
"oX c #CA9CA8",
"OX c #CD9FB0",
"+X c #D4B5AF",
"@X c #E8B4AC",
"#X c #DEC4BA",
"$X c #EFC6AC",
"%X c #F2C8AC",
"&X c #EECBB4",
"*X c #E5CBB4",
"=X c #F5CDB5",
"-X c #F6CFB8",
";X c #F5D3BA",
":X c #FAD3BB",
">X c #B7ABC9",
",X c #B7B3D3",
"<X c #B6B8D9",
"1X c #B9BADA",
"2X c #B8B6D6",
"3X c #ADAAC7",
"4X c #B9BEE2",
"5X c #B5AFE1",
"6X c #B8C4EA",
"7X c #C1C1DC",
"8X c #D5C9D1",
"9X c #FBDAC3",
"0X c #FCE0C7",
"qX c #C4C6E7",
"wX c #CACDF1",
"eX c #E4DEED",
"rX c #E9E5E8",
"tX c #E6E8F4",
"yX c #E9F7FD",
"uX c #F1F2FF",
"iX c #F2F0F4",
/* pixels */
"                                                                                                    ",
"                                                                                                    ",
"                                    6 6 6 6 6 6 6 6 6 6 6 6 6                                       ",
"                              N N C <.<.<.<.<.<.<.<.<.<.<.1.+.7 B N                                 ",
"                            7 7 6 C j.h.h.h.h.h.h.h.h.h.h.j.1.w 7 7                                 ",
"                          7 +.@.3.u.p.p.p.p.p.p.p.p.p.p.p.g.i.u.;.#.Z n                             ",
"                        N 7 @.>.g.h.p.g.g.g.g.g.g.g.g.g.g.p.g.h.y.,.Z n                             ",
"                        N 7 @.>.p.g.g.g.g.g.g.g.g.g.g.g.g.g.p.g.t.-.Z n                             ",
"                        N 6 u.p.p.p.g.g.g.g.g.g.g.g.g.g.g.g.p.g.p.p.C 7                             ",
"                        N 6 u.g.p.p.g.g.g.g.g.g.g.g.g.p.g.g.p.g.p.g.C 7                             ",
"                        8 6 u.g.p.g.g.p.g.p.a.a.a.a.a.g.p.g.g.p.g.g.C 7                             ",
"                      + y A 3.i.p.p.p.g.p.{.[.[.[.[.[.g.g.p.p.g.i.i.E d $ $                         ",
"                      V +.>.&.&.p.g.g.g.s.@XyXyXyXyXrXp.p.g.g.g.t.&.>.-.V V                         ",
"                      > g >.&.:.y.y.y.k.OX8XtX+XoXeXeXOX].t.y.y.>.&.:.%., ,                         ",
"                      . a >.&.&.&.&.&.Y.6XwXiXR.&.rXtX6X3X .-.&.&.-.:.%.. .                         ",
"                      . a >.&.-.:.:.=.e.6X/.R.3.-.e.E.4X^.=.:.:.:.:.:.%.. .                         ",
"                      . a >.&.-.2.2.:.U.6XE.&.2.2.*.r.4X^.-.2.2.-.-.:.%.. .                         ",
"                      . 5 Z @.:.>X,X,X,X<X2X,X,X,X,X,X<X2X,X,X<Xe.=.C y . .                         ",
"                  r ; . , n #.>.,X1X<X<X2X<X<X<X<X<X<X2X2X<X<X6Xe.=.B 8 . O r                       ",
"                  e ; t u B +.@.Q._.2X<X7X7X7X7X7X7X7X7X1X2X3X(.q.#.Z u t ; e e                     ",
"                  . c G.8.W B 6 8 Y 4XwXuXuXuXuXuXuXuXuXtXqXT., 7 6 ~ ! F.8.. .                     ",
"                  . z F.5.U I I U Q Q.~.`.`.).).).).).`.).~.) Z I I U R C.8.. .                     ",
"                  . c XX5.w R ~ W W T T T y , , , , 8 T T z R W ~ ~ q k S.8.. .                     ",
"                    i | u 9 6.b.W ! v.6.u 5.b.c.c.c.w.u / Q.q.R w.v.k q c z                         ",
"                      . 3 0 v.S.W $.D.x.1 w.XXZ.S.D.V.q / 5XI.T v.D.U 9 . .                         ",
"                        + + x.A.B.'.rX`.. m.:X$X$X=X@X5 ( tX+XN.V.A.5 +                             ",
"                          . x.A.A.|.iX`.- W.0X;X;X:X*Xu ) iX#XC.A.A.- .                             ",
"                            - ; B. X9X-X*X&X;X;X;X;X-X*X&X9X.XD.v -                                 ",
"                            . X b.V.%X=X-X-X-X=X%X-X-X-X-X=X|.V.i .                                 ",
"                            . . I ! S..X9X:X:X XV.-X:X9X%XD.w.Q 5 . . .                             ",
"                            . . ..7.b.n.}.|.$X XV..X.X}.'.v.8...i # = 3                             ",
"                            . X l.l.Q Z % 6.XXS.D.D.C.4 q Q ..z.b S D L f f                         ",
"                          D 4 4 b ..X.6.T.q.5.5.5.5.5.T.I.O.X.z.v M q L w.8.f                       ",
"                        S S 0 0 m k z.M.wXP.# 9 9 3 Y 6X^.[ o.z.b M q L Z.N.f E                     ",
"                        T d w.b.L k {  .d.Y._.^ D Q.~.0.4.] _ : - @ w.v.A.N.f                       ",
"                        E f N.Z.L k | } [ E.qX( D ,X>X` ` ] p . X X v.A.A.v.f                       ",
"                      s W.&X&X&X& & x } [ E.qX( D ,X>X] ` +.i . ).rX$.E E E                         ",
"                      s '.:X=X=X& $ T _ ' q.3X^ q Q.~.' _ d t . T.8X$.f x x                         ",
"                      s '.9X;X;X$ + D 9 . . . . . . . . . . 3 P @ .                                 ",
"                      s m.}.}.}.& + 9 3 # # # # @ 2 2 2 2 2 m J < .                                 ",
"                        s s s s     . # P D F F F K.L.K.K.K.K.L.2 .                                 ",
"                                      + 3 < < < < m H H.H.J.K J 1 .                                 ",
"                                        . . . . . . 1 J.H.K.J j @ .                                 ",
"                                                  9 0 G G G 0 @                                     ",
"                                                  D D q q L 3 .                                     ",
"                                                  X * ] ` ] p .                                     ",
"                                                  . h ` ` ] p .                                     ",
"                                                      o o o o                                       ",
"                                                      . . .                                         ",
"                                                                                                    "
};
