/* XPM */
static char *_2f41efd9d7a4b4fbe99ef9df9962819GeZLiWuOYDffdDbF[] = {
/* columns rows colors chars-per-pixel */
"50 50 221 2 ",
"   c None",
".  c #020101",
"X  c #0A0A09",
"o  c #160404",
"O  c #16100C",
"+  c #111212",
"@  c #161A1B",
"#  c #1A1D1D",
"$  c #1A1517",
"%  c #0B1419",
"&  c #241B19",
"*  c #3F1717",
"=  c #1C201F",
"-  c #2B2117",
";  c #392517",
":  c #3B3100",
">  c #1B1520",
",  c #281B2A",
"<  c #1D2324",
"1  c #16232B",
"2  c #1D2D3C",
"3  c #222524",
"4  c #282827",
"5  c #342525",
"6  c #352C3E",
"7  c #3B2E3F",
"8  c #352635",
"9  c #2C3132",
"0  c #2D363B",
"q  c #373939",
"w  c #272B36",
"e  c #402612",
"r  c #57341A",
"t  c #432C23",
"y  c #4C2D37",
"u  c #483737",
"i  c #4F3629",
"p  c #782222",
"a  c #73332E",
"s  c #6E3537",
"d  c #673A3D",
"f  c #723A3D",
"g  c #7A3937",
"h  c #400E0E",
"j  c #3D413C",
"k  c #4A443B",
"l  c #50403D",
"z  c #684736",
"x  c #79413F",
"c  c #76523C",
"v  c #6B5635",
"b  c #73622F",
"n  c #3D2F40",
"m  c #293A48",
"M  c #373D40",
"N  c #433140",
"B  c #4A3543",
"V  c #47374A",
"C  c #5C3944",
"Z  c #523842",
"A  c #6D3C43",
"S  c #354043",
"D  c #3C4444",
"F  c #3F4949",
"G  c #3C4C57",
"H  c #274156",
"J  c #3E5566",
"K  c #3C5C73",
"L  c #434542",
"P  c #424B4B",
"I  c #594246",
"U  c #574346",
"Y  c #524756",
"T  c #6B4341",
"R  c #684A46",
"E  c #7D4443",
"W  c #72524E",
"Q  c #644A56",
"!  c #7A5853",
"~  c #6F504D",
"^  c #5A5963",
"/  c #645B69",
"(  c #686773",
")  c #7D737C",
"_  c #8A3631",
"`  c #B93838",
"'  c #A92E2E",
"]  c #C83B3C",
"[  c #C52C2E",
"{  c #98621D",
"}  c #974438",
"|  c #835434",
" . c #A7533C",
".. c #906F32",
"X. c #AC762A",
"o. c #CA7127",
"O. c #9E3D44",
"+. c #874647",
"@. c #994946",
"#. c #984845",
"$. c #855C57",
"%. c #A14942",
"&. c #AC4D46",
"*. c #AC4E49",
"=. c #B14D43",
"-. c #AE5149",
";. c #A5504B",
":. c #B25149",
">. c #BA5349",
",. c #B35147",
"<. c #A35350",
"1. c #AB5652",
"2. c #B05552",
"3. c #BC5C54",
"4. c #BB4F57",
"5. c #8A6B57",
"6. c #9B775A",
"7. c #946D4B",
"8. c #A8775A",
"9. c #B36F5C",
"0. c #BC5963",
"q. c #8F6E73",
"w. c #A47B63",
"e. c #B3757D",
"r. c #B06F64",
"t. c #C55B4F",
"y. c #C85E52",
"u. c #C46258",
"i. c #D66659",
"p. c #E66F5F",
"a. c #E86D5C",
"s. c #EA634D",
"d. c #C15463",
"f. c #E77162",
"g. c #E97060",
"h. c #F57562",
"j. c #F97964",
"k. c #CA7574",
"l. c #CA9908",
"z. c #D8A500",
"x. c #AD8263",
"c. c #AE8169",
"v. c #BD8B6C",
"b. c #B7886A",
"n. c #B88975",
"m. c #B08D78",
"M. c #C6A65F",
"N. c #C58D6C",
"B. c #CB9570",
"V. c #D59D75",
"C. c #D69C74",
"Z. c #DBA27A",
"A. c #D8A078",
"S. c #E2A57A",
"D. c #E6A97B",
"F. c #EAA87A",
"G. c #F6AF7F",
"H. c #3F6786",
"J. c #416A8B",
"K. c #436E91",
"L. c #467296",
"P. c #78788C",
"I. c #8F798C",
"U. c #B87B81",
"Y. c #AC7A88",
"T. c #8C8B9A",
"R. c #BE8384",
"E. c #B98393",
"W. c #B79485",
"Q. c #9B94AC",
"!. c #948DAC",
"~. c #A295AB",
"^. c #B89FB8",
"/. c #BB97A7",
"(. c #9EA0BE",
"). c #ACA6B2",
"_. c #A1A1BC",
"`. c #B1AAAD",
"'. c #C59D89",
"]. c #CC8D97",
"[. c #E79C9A",
"{. c #E78C85",
"}. c #C8A595",
"|. c #DBAD8F",
" X c #E0AC88",
".X c #E9BA9B",
"XX c #EFAB8B",
"oX c #CA9CA8",
"OX c #CD9FB0",
"+X c #D4B5AF",
"@X c #E8B4AC",
"#X c #DEC4BA",
"$X c #EFC6AC",
"%X c #F2C8AC",
"&X c #EECBB4",
"*X c #E5CBB4",
"=X c #F5CDB5",
"-X c #F6CFB8",
";X c #F5D3BA",
":X c #FAD3BB",
">X c #B7ABC9",
",X c #B7B3D3",
"<X c #B6B8D9",
"1X c #B9BADA",
"2X c #B8B6D6",
"3X c #ADAAC7",
"4X c #B9BEE2",
"5X c #B5AFE1",
"6X c #B8C4EA",
"7X c #C1C1DC",
"8X c #D5C9D1",
"9X c #FBDAC3",
"0X c #FCE0C7",
"qX c #C4C6E7",
"wX c #CACDF1",
"eX c #E4DEED",
"rX c #E9E5E8",
"tX c #E6E8F4",
"yX c #E9F7FD",
"uX c #F1F2FF",
"iX c #F2F0F4",
/* pixels */
"                                                                                                    ",
"                                                                                                    ",
"                                      6 6 6 6 6 6 6 6 6 6 6 6 6                                     ",
"                                N B 7 +.1.<.<.<.<.<.<.<.<.<.<.<.C N N                               ",
"                                7 7 w 1.j.h.h.h.h.h.h.h.h.h.h.j.C 6 7 7                             ",
"                            n Z #.;.u.i.g.p.p.p.p.p.p.p.p.p.p.p.u.3.#.+.7                           ",
"                            n Z ,.y.h.g.p.g.g.g.g.g.g.g.g.g.g.p.h.g.>.@.7 N                         ",
"                            n Z -.t.g.p.g.g.g.g.g.g.g.g.g.g.g.g.f.p.:.#.7 N                         ",
"                            7 C p.p.g.p.g.g.g.g.g.g.g.g.g.g.g.g.p.p.p.u.6 N                         ",
"                            7 C g.p.g.p.g.g.p.g.g.g.g.g.g.p.g.g.p.p.g.u.6 N                         ",
"                            7 C g.g.p.g.g.p.g.a.a.a.a.a.p.g.p.g.g.p.g.u.6 8                         ",
"                        $ $ d E i.i.g.p.p.f.f.[.[.[.[.[.{.p.f.p.p.p.i.3.A y +                       ",
"                        V V -.>.&.t.g.g.g.p.p.rXyXyXyXyX@Xs.g.g.g.p.&.&.>.+.V                       ",
"                        , , %.:.-.>.y.y.t.].OXeXeXoX+XtX8XOXk.y.y.y.:.&.:.g >                       ",
"                        . . %.:.:.&.&.-. .3X6XtXrX*.R.iXwX6XY.&.&.&.&.&.:.a .                       ",
"                        . . %.:.:.:.:.:.=.^.4XE.U.-.3.R./.6Xe.=.:.:.-.&.:.a .                       ",
"                        . . %.:.-.-.2.2.-.^.4Xr.*.2.2.&.E.6XU.:.2.2.:.&.>.a .                       ",
"                        . . y C =.e.<X,X,X2X1X,X,X,X,X,X,X1X,X,X,X>X:.#.Z 5 .                       ",
"                      r O . 8 Z =.e.6X1X1X2X2X<X<X<X<X<X<X2X<X1X1X,X:.#.n , . ; r                   ",
"                    ; e ; t u Z #.q.(.3X2X1X7X7X7X7X7X7X7X7X1X2X_.Q.@.+.B u t ; e                   ",
"                    . . 8.F.! ~ 6 7 , T.qXtXuXuXuXuXuXuXuXuXwX4XY 8 6 B W 8.G.c .                   ",
"                    . . 8.C.R U I I Z ) ~.).`.).).).).).`.`.~.Q.Q I I I U 5.F.z .                   ",
"                    . . 8.S.k q ~ ~ W R z T T 8 , , , , y T T T W W ~ R w 5.XXc .                   ",
"                        z c q k v.w.R q.Q./ l w.c.c.c.b.5.u 6.v.! W b.6.9 u c i                     ",
"                        . . 9 U D.v.T I.5X/ q V.D.S.S.G.w.1 x.F.$.W S.v.0 4 .                       ",
"                            + 5 Z.V.N.+XtX( 4 .X=X$X$X:Xm.. ~.rX'.B.Z.x.+ +                         ",
"                            . - Z.A.C.#XiX) u *X:X;X-X0XW.- `.iX|.A.Z.x..                           ",
"                                - v D..X9X&X*X-X;X;X;X;X&X*X-X9X XB.; -                             ",
"                                . i V.|.=X-X-X-X-X%X=X-X-X;X=X%XV.v.X .                             ",
"                            . . . 5 Q w.D.%X9X:X-XV. X:X:X9X.XS.! I . .                             ",
"                            3 < # i ..8.v.'.}..X.XV. X$X|.}.n.v.7.... .                             ",
"                        f f L D S b z...Q q 4 C.D.D.S.XX6.% Z Q l.l.X .                             ",
"                      f 8.r.L q 0 v z.X.O.I.T.5.5.5.5.5.q.T.6.X...b 4 4 D                           ",
"                    E f N.Z.L q S b z.o.[ ^.qXY 3 9 9 # P.wXM.z.k m q q S S                         ",
"                      f N.Z.v.w.@ - : _ ] 4.0.~.Q.M ^ _.Y.d. .{ k L b.w.d T                         ",
"                      f v.Z.Z.v.X X . p ] ` ` >X,XD ( qXE.[ } | k L Z.N.f E                         ",
"                        E +.E $.rX).. i +.` ] >X>XD ( 6XE.[ } x & & &X&X&XW.s                       ",
"                        x x f $.8XT.. t d _ ' ~.Q.q ^ 3Xq.' _ T $ & &X=X:X'.s                       ",
"                                . @ P 3 . . . . . . . . . . 9 D + $ ;X;X9X'.s                       ",
"                                . < J m 2 2 2 2 2 @ # # # # 3 9 + & }.}.}.m.s                       ",
"                                . 2 L.K.L.L.K.L.L.F F F F P # .     s s s s                         ",
"                                . 1 J K J.H.H.H m < < < < 3 +                                       ",
"                                . @ j J K.H.J.1 . . . . . .                                         ",
"                                    @ 0 G G G 0 9                                                   ",
"                                    . 4 L q q D F                                                   ",
"                                    . p ] ` ] * X                                                   ",
"                                    . p ] ` ` h .                                                   ",
"                                      o o o o                                                       ",
"                                        . . .                                                       ",
"                                                                                                    "
};
