/* XPM */
static char *_f503319dcbe4c5f8da520ea008745b83zJV4R7o6OuwltEE[] = {
/* columns rows colors chars-per-pixel */
"50 50 156 2 ",
"   c #37580F",
".  c #38580F",
"X  c #375912",
"o  c #385911",
"O  c #396116",
"+  c #38671A",
"@  c #38691B",
"#  c #3B6525",
"$  c #3A672E",
"%  c #39692E",
"&  c #397522",
"*  c #377C26",
"=  c #387D27",
"-  c #3A732D",
";  c #397E28",
":  c #3F6B33",
">  c #396F3C",
",  c #3A7C36",
"<  c #38773B",
"1  c #3A7F3B",
"2  c #436D36",
"3  c #3A7341",
"4  c #4A7943",
"5  c #4B7C4D",
"6  c #39852B",
"7  c #378A2D",
"8  c #398A2D",
"9  c #398337",
"0  c #398E31",
"q  c #3B803A",
"w  c #3A8A3B",
"e  c #399031",
"r  c #3B943E",
"t  c #43853D",
"y  c #3B8C44",
"u  c #3C864F",
"i  c #3A8A4A",
"p  c #3B9542",
"a  c #3A994E",
"s  c #3E8456",
"d  c #3B8B56",
"f  c #3D8258",
"g  c #3C8A5D",
"h  c #2C9751",
"j  c #2C9850",
"k  c #3B9952",
"l  c #3E9358",
"z  c #3C9D5E",
"x  c #3D8B60",
"c  c #3D9C62",
"v  c #3C966B",
"b  c #3F9F76",
"n  c #19A068",
"m  c #3DA166",
"M  c #3CA46F",
"N  c #2DA671",
"B  c #3EA373",
"V  c #3BAA77",
"C  c #3FA67D",
"Z  c #3EAA7A",
"A  c #409746",
"S  c #439946",
"D  c #449948",
"F  c #4B9D4E",
"G  c #4B8D55",
"H  c #4B9256",
"J  c #479C53",
"K  c #4D9E51",
"L  c #4C9F5D",
"P  c #4BA05C",
"I  c #53A35A",
"U  c #429367",
"Y  c #569166",
"T  c #599166",
"R  c #50956B",
"E  c #5A966B",
"W  c #4F9F74",
"Q  c #41A265",
"!  c #45A56D",
"~  c #50A76F",
"^  c #54A96C",
"/  c #40A076",
"(  c #42AA76",
")  c #4DA971",
"_  c #40A279",
"`  c #49A67C",
"'  c #41AB7A",
"]  c #4BAE7C",
"[  c #58A271",
"{  c #54AB72",
"}  c #58AE76",
"|  c #5FA77E",
" . c #53A979",
".. c #6EA077",
"X. c #60A77E",
"o. c #6EAB7C",
"O. c #6DB47D",
"+. c #3FAC80",
"@. c #3FAF88",
"#. c #3FB087",
"$. c #3FB088",
"%. c #47AF83",
"&. c #4BAF82",
"*. c #41AF88",
"=. c #41B087",
"-. c #4BB283",
";. c #40B088",
":. c #4AB48C",
">. c #50B487",
",. c #5EB582",
"<. c #52B68D",
"1. c #58B78B",
"2. c #52B791",
"3. c #55BA91",
"4. c #5BBB94",
"5. c #6FA681",
"6. c #79AA87",
"7. c #7BAF8C",
"8. c #6FB786",
"9. c #66BD8E",
"0. c #6ABC8F",
"q. c #78BC8D",
"w. c #64BF96",
"e. c #6CBD93",
"r. c #61BF98",
"t. c #73BC96",
"y. c #60C097",
"u. c #6BC195",
"i. c #66C29A",
"p. c #6DC29B",
"a. c #77C195",
"s. c #71C39D",
"d. c #71C89E",
"f. c #6FC7A0",
"g. c #6FC8A0",
"h. c #75C7A1",
"j. c #70C8A0",
"k. c #7FCAA5",
"l. c #84B997",
"z. c #83B998",
"x. c #83C59B",
"c. c #81CAA5",
"v. c #8FC9A8",
"b. c #92CCAC",
"n. c #86D1AD",
"m. c #8FD1AA",
"M. c #91D1AB",
"N. c #8BD4B1",
"B. c #93D6B3",
"V. c #96DAB9",
"C. c #9FDFBE",
"Z. c #9FE0BE",
"A. c #A0E0BE",
"S. c #9FDFC0",
"D. c #A0DFC0",
"F. c #A1E0C0",
/* pixels */
"h.h.h.h.h.h.h.h.h.h.h.h.h.h.h.h.h.h.h.h.h.s.;.;.=.e e e p.h.h.h.h.h.h.h.h.h.h.h.h.h.h.h.h.h.h.h.h.h.",
"h.h.h.h.h.h.h.h.h.h.h.h.h.h.h.h.h.h.h.h.h.s.;.;.=.e e e p.h.h.h.h.h.h.h.h.h.h.h.h.h.h.h.h.h.h.h.h.h.",
"h.h.h.h.h.h.h.h.h.h.h.h.h.h.h.h.h.h.h.h.h.s.;.;.=.e e e u.h.h.h.h.h.h.h.h.h.h.h.h.h.h.h.h.h.h.h.h.h.",
"h.h.h.h.h.h.h.h.h.h.h.h.h.h.h.h.h.h.p.:.:.-.p p p B.B.B.I D D e.h.h.h.h.h.h.h.h.h.h.h.h.h.h.h.h.h.h.",
"h.h.h.h.h.h.h.h.h.h.h.h.h.h.h.h.h.h.p.;.;.Z e e e C.D.D.K e e e.h.h.h.h.h.h.h.h.h.h.h.h.h.h.h.h.h.h.",
"h.h.h.h.h.h.h.h.h.h.h.h.h.h.h.h.h.h.p.;.;.Z e e e A.D.D.K e e 0.h.h.h.h.h.h.h.h.h.h.h.h.h.h.h.h.h.h.",
"h.h.h.h.h.h.{ L L L L L L L L ) <.<.:.;.;.:.m.m.m.D.D.D.K e e ] <.<.R 5 5 G L L H 5 5 Y h.h.h.h.h.h.",
"h.h.h.h.h.h.L e e e e e e e e z ;.;.;.;.;.2.S.D.D.D.D.D.K e e Z ;.;.s . . & e e = . . 5 h.h.h.h.h.h.",
"h.h.h.h.h.h.P e e e e e e e e z =.=.=.=.=.2.S.D.D.D.D.D.K e e ( ;.;.s o o & e e = . o 5 h.h.h.h.h.h.",
"h.h.h.>.-.-.a.x.x.x.x.x.x.x.x.8.z z z z z ~ F.D.F.n.n.n.F e e u f f 5.z.z.z.x.x.x.z.z.7.T T E 4.4.4.",
"h.h.h.N n n N.D.D.D.D.D.D.D.D.x.e e e e e K F.D.F.j.j.j.S e e @ . . l.D.D.D.D.D.D.D.D.v..   $ ;.;.;.",
"h.h.h.N n n N.D.D.D.D.D.D.D.D.x.e e e e e K F.D.F.j.j.j.S e e @ . . l.D.D.D.D.D.D.D.D.v..   $ ;.;.;.",
"h.h.h.1.>.>.e.s.s.N.D.D.D.D.D.M.q.q.O.e e F N.N.N.j.j.j.t & & s x x t.N.N.V.D.D.b.6.6...& & 9 ;.;.;.",
"h.h.h.h.h.h.Z n n c.D.D.D.D.D.D.D.D.m.e e S g.j.j.j.j.j.2 . . / ;.;.y.j.j.N.D.D.z.. . @ e e p ;.;.;.",
"h.h.h.h.h.h.Z n n c.D.D.D.D.D.D.D.D.m.e e S g.j.j.j.j.j.2 . . / ;.;.y.j.j.N.D.D.z.. . @ e e p ;.;.;.",
"h.h.h.h.h.h.>.-.-.p.k.k.n.B.B.B.B.B.c.^ ^ ^ ,.,.,.r.y.r.: . . / ;.;.3.y.y.a.x.x.o.& & , z z Q 4.4.4.",
"h.h.h.h.h.h.h.h.h.-.n n >.j.j.j.j.j.j.j.j.u.e e e =.;.;.$ . . / ;.;.;.;.;.m e e e e e a ;.;.:.h.h.h.",
"h.h.h.h.h.h.h.h.h.-.n n >.j.j.j.j.j.j.j.j.u.e e e =.;.;.$ . . / ;.;.;.;.;.m e e e e e a ;.;.:.h.h.h.",
"h.h.h.p.w.w.w.w.w.' n n ] 9.9.9.9.9.e.j.j.u.e e e ( ( ( - + + B ;.;.' / / l 6 6 6 6 6 y / / ` h.h.h.",
"h.h.h.N n n n n n n n n j e e e e e J j.j.u.e e e e e e e e e Z ;.;.s .   . o . . . . .   . 2 h.h.h.",
"h.h.h.N n n n n n n n n h e e e e e J j.j.u.e e e e e e e e e Z ;.;.s . . . . . . . . . . . 2 h.h.h.",
"p.p.p.' V V V V V V V V m D D r e e J u.u.9.S D S 8 8 8 r p p B C C s % % : 2 2 2 2 2 2 2 2 4 e.e.e.",
"e e e B.D.D.D.D.D.D.D.D.N.f.f.,.e e e e e D p.f.s.X . . C #.$.3 o o v @.@.4.j.j.j.j.j.j.j.j.e.. . . ",
"e e e B.D.D.D.D.D.D.D.D.N.j.j.,.e e e e e S g.j.d.X . . C ;.;.3 . . v ;.;.4.j.j.j.j.j.j.j.j.e.. . . ",
"e e e B.Z.Z.D.D.D.F.D.F.N.j.j.,.e e e e e S d.d.d.X . . _ =.=.3 o o v ;.;.4.j.j.j.j.j.j.d.d.e.o o o ",
"=.=.=.p e e M.D.D.n.j.j.j.j.j.r.=.=.Z e e e e e e   . . X X X / =.=.=.;.;.;.;.;.;.;.;./ X X $ =.=.=.",
";.;.#.p e e M.D.D.n.j.j.j.j.j.r.;.;.Z e e e e e e X . . . . . / ;.;.;.;.;.;.;.;.;.;.$./ .   $ ;.;.;.",
";.;.=.p e e M.D.F.n.j.j.j.j.j.r.;.;.Z e e e e e 0   . . . . . / ;.;.;.;.;.;.;.;.;.;.$.B .   $ ;.;.;.",
"p.p.p.%.Z +.P K F ] :.:.:.:.:.;.;.;.#.Z Z B O O O . . . 6 8 8 r p p p p p q $ $ $ $ $ - 8 8 0 p p p ",
"h.h.h.:.;.$.k e e B ;.;.;.;.;.;.;.;.;.;.;.C o . . . . . 8 e e e e e e e e &   . . . . @ e e e e e e ",
"h.h.h.:.;.$.k e e B ;.;.;.;.;.;.;.;.;.;.;.C o . . . . . 8 e e e e e e e e &   . . . . @ e e e e e e ",
"h.h.h.p.p.p.&.Z Z c a a a a a i 3 3 3 3 3 > . . . . . . + @ @ @ @ @ @ @ @ O . . @ 6 6 6 e e r Z Z Z ",
"h.h.h.h.h.h.:.;.=.z e e e e e = . . . . . . . . . . . . . . . . . . . . . . . . & e e e 0 0 p ;.;.;.",
"h.h.h.h.h.h.:.;.=.z e e e e e = . . . . . . . . . . . . . . . . . . . . . . . . & e e e e e p ;.;.;.",
"h.h.h.4.4.4.! z z { ,.,.,.,.,. .v v g . . X ; ; ;   . . . . . & ; ; d v v v v v d & & 1 M B ( w.w.w.",
"h.h.h.:.;.$.k e e ,.j.j.j.j.j.r.;.;.B . . O e e e X . . . . . 6 e e B ;.;.;.;.;.v . . 3 $.;.:.h.h.h.",
"h.h.h.:.;.$.k e e ,.j.j.j.j.j.r.;.;./ . . O e e e X . . . . . 6 e e B ;.;.;.;.;.v o . 3 $.;.:.h.h.h.",
"h.h.h.! m m { } } e.j.j.i.4.4.>.m m l & & * e e e & & & X . . 6 e e k m m m m m c g g g x g U 4.4.4.",
"h.h.h.S e e 9.j.j.d.j.j.4.;.;.M e e e e e e e e e e e 0 O . . 6 e e e e e e e e z $.$.B .   $ ;.;.;.",
"h.h.h.D e e 9.j.j.j.j.j.4.;.;.M e e e e e e e e e e e e O . . 6 e e e e e e e e z $.$./ .   $ ;.;.;.",
"w.w.w.A e e [ X.X.X.X.| W v v d = = 9 z z z z z z z z z - & & * = = = = = = = = i v v g . . # B B B ",
";.;.$.p e e + . . . . . . o o . . . 3 ;.=.=.=.=.=.=.=.$.p e e @ . . . . . . . . . . o o . . O e e e ",
";.;.#.p e e + . . . . . . . . . . . 3 ;.$.;.;.;.;.;.;.;.p e e @ . . . . . . . . . . . . . . O e e e ",
";.;.;.k a a - + @ + @ + @ + @ + @ + < b b B ;.;.;.Z Z Z w 6 6 @ @ + @ + @ + @ + @ + @ + @ + @ e e e ",
";.;.;.;.;.;.k e e e e e e e e e e e 6 . . % *.;.=.e e e O . . 6 e e e e e e e e e e e e e e e e e e ",
";.;.;.;.;.;.k e e e e e e e e e e e 6 . . % *.*.=.e e e O . . 6 e e e e e e e e e e e e e e e e e e ",
":.:.:.:.:.:.z r r r r p r e e e e e 6 O O % C C C 8 8 7 + O O 6 e e e e e r p r r r r p S S S S S S ",
"h.h.h.h.h.h.:.;.;.;.;.;.m e e e e e e e e 7 . . . . . . 8 e e e e e e e e m ;.;.;.;.;.<.h.h.h.h.h.h.",
"h.h.h.h.h.h.:.;.;.;.;.;.m e e e e e e e e 7 . . . . . . 8 e e e e e e e e m ;.;.;.;.;.<.h.h.h.h.h.h.",
"h.h.h.h.h.h.:.;.;.;.;.;.m e e e e e e e e 7 . . . . . . 8 e e e e e e e e m ;.;.;.;.;.<.h.h.h.h.h.h."
};
