/* XPM */
static char *_dbae0fe18674d38a6f2201aef64843aB3rTlA45Cdcu5pRQ[] = {
/* columns rows colors chars-per-pixel */
"50 50 217 2 ",
"   c None",
".  c #010100",
"X  c #0C0B08",
"o  c #160906",
"O  c #16191A",
"+  c #1E100F",
"@  c #291507",
"#  c #2D1B08",
"$  c #251915",
"%  c #2B130C",
"&  c #372318",
"*  c #2F2610",
"=  c #1E1B24",
"-  c #2A1E20",
";  c #002333",
":  c #252729",
">  c #392729",
",  c #2E2C37",
"<  c #3A2D3D",
"1  c #372839",
"2  c #353E3E",
"3  c #363B3A",
"4  c #2F3433",
"5  c #5C1B1A",
"6  c #4A3703",
"7  c #4C2D15",
"8  c #4E2D19",
"9  c #432615",
"0  c #52321A",
"q  c #5B361A",
"w  c #5A3718",
"e  c #41240E",
"r  c #643B1C",
"t  c #653F1A",
"y  c #501725",
"u  c #79172A",
"i  c #482F26",
"p  c #483125",
"a  c #5A3825",
"s  c #472E3C",
"d  c #43383F",
"f  c #593739",
"g  c #7B2222",
"h  c #752122",
"j  c #6D3F26",
"k  c #763D3D",
"l  c #633235",
"z  c #644218",
"x  c #75510F",
"c  c #40403C",
"v  c #6E4120",
"b  c #6A442B",
"n  c #79482F",
"m  c #774627",
"M  c #6B4136",
"N  c #7A4930",
"B  c #79403F",
"V  c #765136",
"C  c #392D41",
"Z  c #342C42",
"A  c #2D3243",
"S  c #413040",
"D  c #493241",
"F  c #5C3741",
"G  c #593B45",
"H  c #473D53",
"J  c #6C3C43",
"K  c #633942",
"L  c #713D43",
"P  c #7A3F42",
"I  c #364242",
"U  c #3A4242",
"Y  c #3D4D59",
"T  c #3D505E",
"R  c #325672",
"E  c #424746",
"W  c #5D4C44",
"Q  c #794141",
"!  c #7E4A45",
"~  c #7C4D53",
"^  c #6B625C",
"/  c #464D63",
"(  c #655872",
")  c #72586D",
"_  c #6D6277",
"`  c #706379",
"'  c #766B63",
"]  c #89273C",
"[  c #9B2F2F",
"{  c #BA3535",
"}  c #C7393A",
"|  c #D63D3C",
" . c #865F0E",
".. c #886409",
"X. c #926B0C",
"o. c #986817",
"O. c #A06F1B",
"+. c #A97B14",
"@. c #A0760A",
"#. c #854E27",
"$. c #884E2A",
"%. c #8A5126",
"&. c #8C5229",
"*. c #935529",
"=. c #8F5032",
"-. c #AC4337",
";. c #9D6724",
":. c #933746",
">. c #93304A",
",. c #894546",
"<. c #86534E",
"1. c #8D564A",
"2. c #8C5C58",
"3. c #994C53",
"4. c #AD4E47",
"5. c #A44C48",
"6. c #B24E47",
"7. c #AF514A",
"8. c #B35147",
"9. c #B25048",
"0. c #BF584E",
"q. c #BC5348",
"w. c #AC5654",
"e. c #B45953",
"r. c #956B5B",
"t. c #A77A5A",
"y. c #B3705D",
"u. c #945367",
"i. c #AF5E61",
"p. c #B17368",
"a. c #C1574C",
"s. c #C95F53",
"d. c #CE6155",
"f. c #D16356",
"g. c #DB695C",
"h. c #E66F5F",
"j. c #E86F5F",
"k. c #E86856",
"l. c #D77066",
"z. c #E77060",
"x. c #E97060",
"c. c #F37563",
"v. c #E67B71",
"b. c #E76F60",
"n. c #BC8B0B",
"m. c #BB8813",
"M. c #A98100",
"N. c #B78F20",
"B. c #C59501",
"V. c #CD9D01",
"C. c #C89604",
"Z. c #C89410",
"A. c #D3A200",
"S. c #E8B402",
"D. c #CE9B20",
"F. c #B2815E",
"G. c #B98664",
"H. c #CA936C",
"J. c #C5916B",
"K. c #CB9572",
"L. c #D59D76",
"P. c #D79F78",
"I. c #C38D67",
"U. c #DBA37B",
"Y. c #DDA377",
"T. c #E6AA7F",
"R. c #37698D",
"E. c #3C7297",
"W. c #756A80",
"Q. c #7B728D",
"!. c #8F6E88",
"~. c #B17F8F",
"^. c #8A8492",
"/. c #A9869C",
"(. c #988EAC",
"). c #9992AB",
"_. c #A996AA",
"`. c #BB95A7",
"'. c #A49CB6",
"]. c #A485A1",
"[. c #9AA5BB",
"{. c #BFADBA",
"}. c #DCA783",
"|. c #CFAF97",
" X c #E6AC82",
".X c #CDA6AD",
"XX c #DEBEA8",
"oX c #E4A4A6",
"OX c #E1BCA4",
"+X c #D4C3AD",
"@X c #EBC4AB",
"#X c #F1C7AC",
"$X c #F5CDB4",
"%X c #ECD3BC",
"&X c #F5D2BC",
"*X c #F9D4BC",
"=X c #EFCBB4",
"-X c #B6AECB",
";X c #BCB9C4",
":X c #BEB7D9",
">X c #A5A0C1",
",X c #B9BCE0",
"<X c #C1BBD1",
"1X c #C9C6D8",
"2X c #D9D6DA",
"3X c #E4DCDF",
"4X c #F8DDC4",
"5X c #F1E0C7",
"6X c #C4C4E5",
"7X c #DFDCEE",
"8X c #D0CCE5",
"9X c #ECE7EB",
"0X c #E5E5F4",
"qX c #ECEAF5",
"wX c #EBF2F5",
"eX c #F5F5FC",
"rX c #F1EBF0",
/* pixels */
"                                                                                                    ",
"                                                                                                    ",
"                                    < < < < < < < < < < < < C <                                     ",
"                                    F F J J J J J J J J J J J K                                     ",
"                                < D 5.9.h.z.z.z.z.z.z.z.z.h.x.e., < <                               ",
"                                F K 9.0.h.z.h.h.h.h.h.j.h.h.x.e.J J F F                             ",
"                            C D 5.9.h.z.z.z.z.z.z.z.z.z.z.z.b.z.z.d.9.Q <                           ",
"                            S D 7.0.h.h.h.h.z.z.z.z.z.z.z.h.z.z.z.f.a.,.<                           ",
"                            1 s g.x.h.h.z.z.z.z.z.z.z.z.z.z.z.z.z.b.c.3.,                           ",
"                            ( ` l.z.h.z.z.z.z.z.z.z.z.z.z.z.z.z.z.h.c.w.K F                         ",
"                        s S -X6Xv.k.j.j.j.z.z.z.z.z.z.z.z.z.z.z.z.h.x.d.q.L <                       ",
"                        / / /.`.oXoXz.j.z.z.z.z.z.z.z.z.z.z.z.z.z.h.z.s.9.L <                       ",
"                    1 1 R R.5.e.2XwXv.z.z.z.z.z.z.z.z.z.z.z.z.z.h.z.c.d.9.L <                       ",
"                    ^.).[.[.i.e.3X0Xl.f.h.j.h.h.h.h.h.h.h.h.h.h.z.g.f.0.8.L <                       ",
"                S 1 <XeXqXrXp.7.3XwXi.9.z.x.x.x.x.x.x.x.x.x.x.x.c.f.5.4.9.L <                       ",
"                S 1 ;XqX0X0X`.~..X.Xe.9.d.d.d.d.d.d.d.d.d.d.d.d.f.a.4.9.9.L <                       ",
"                S 1 ;XeX0X0X6X,Xi.-.9.4.4.4.4.4.4.4.4.4.4.4.4.4.4.4.9.4.9.L <                       ",
"                S 1 '.8X7XqX/.!.w.9.7.9.9.9.9.9.9.9.9.9.9.9.9.9.9.9.9.4.9.J <                       ",
"                S 1 (.:X7X9Xu.u 4.9.9.9.9.9.9.9.9.9.9.9.9.9.9.9.9.9.4.9.q.L Z                       ",
"                    _ W.-X1X_.].3.:.4.4.4.4.4.4.4.4.4.4.4.4.4.4.4.4.9.,.L f i                       ",
"                    1 > '.<X:X6Xu.] 6.9.9.9.8.8.9.9.8.9.9.9.9.9.9.8.a.P Z i 0                       ",
"                        _ W.` ` G f J J J J J J J J J J J J J J J J J M N a 8                       ",
"                        1 1 1 1 I I < < < C C C C C C C C C C C C C Z M *.t 7                       ",
"                        J J J J - : Q.!.J l p a N b i a n n n n n n N j q q                         ",
"                        B Q k k $ = (.(.Q k 8 q %.m 7 r %.%.%.%.%.%.*.v 8                           ",
"                        Q Q G.K.> 4 1X2XK.y.0 b H.I.J.t.0 v %.#.%.v q & o                           ",
"                        Q Q K.T.p 4 2X9X}.H.0 V U.U. XG.e r %.#.&.v 0 # .                           ",
"                        K.K.@X$XXXXX&X&X$X@XH.H.U.L.T.G.e r %.#.%.v 8 8                             ",
"                        U.U.@X%X*X*X$X$X&X#XU.U.P.L.U.F.7 r %.#.$.v 8                               ",
"                            2.2.@X*X*X$X}.U.L.L.T.J.b b &.r @ @ @ #                                 ",
"                            k ! XX$X=X@XL.L.U.L.U.G.7 r &.t * # o o                                 ",
"                                <.<.<.<.! 1.Y.H.b a 8 0 8 x V.X.9 7                                 ",
"                                Q Q P P ~ 2.}.K.z w 0 q w ..A.@.w t                                 ",
"                                    ] >.-X:X:X{.D.m.$.;.B.B.B.B.V.@.8                               ",
"                                    ] :.).'.>X_.N.+.j o.V.B.B.B.C.X.&                               ",
"                                I d } { o O 2 2 U 4 . 6 A.B.V.+.=.q .                               ",
"                                I c [ [ W W ' ^ U 4 . 6 n.n.n.+.;.z .                               ",
"                                U 2 + & %X5X4X+XE 4 . & *.%.N O.S....                               ",
"                                U 2 X $ OX@X#X|.E 3 O & v m ;.O.Z.x .                               ",
"                                U 2 X $ U.T. XK.c 3 U 4 . x S.m.=.r .                               ",
"                                U 2 O - t.t.t.r.Y Y T A . 6 M. .v 7 .                               ",
"                                    E U . . . ; E.R.E.R . . . . . .                                 ",
"                                    : : 5 5 5 l ) ) ( H . . X . .                                   ",
"                                    . o | | | | | } >.u . .                                         ",
"                                      o h g g g g h y y .                                           ",
"                                        . . . . . . . .                                             ",
"                                                                                                    ",
"                                                                                                    ",
"                                                                                                    ",
"                                                                                                    "
};
