/* XPM */
static char *_f609dc4f83647d1870ed68e9edb4e08XaZDuTXrXocgaYjR[] = {
/* columns rows colors chars-per-pixel */
"50 50 215 2 ",
"   c #000000",
".  c #030101",
"X  c #0B0603",
"o  c #0D0A06",
"O  c #120C02",
"+  c #150F08",
"@  c #171004",
"#  c #1B1B1A",
"$  c #161412",
"%  c #0F1010",
"&  c #27160A",
"*  c #2A0C11",
"=  c #261514",
"-  c #3B210D",
";  c #352008",
":  c #292116",
">  c #1C2220",
",  c #37282A",
"<  c #392737",
"1  c #352B3D",
"2  c #3D2E3E",
"3  c #352737",
"4  c #2A3736",
"5  c #353C3C",
"6  c #35373B",
"7  c #5C1919",
"8  c #75101C",
"9  c #42250E",
"0  c #4C2D15",
"q  c #482A15",
"w  c #4F3017",
"e  c #523215",
"r  c #533218",
"t  c #5C3719",
"y  c #673D1E",
"u  c #4A1925",
"i  c #6D1F32",
"p  c #4A2C2C",
"a  c #5A3728",
"s  c #422F3F",
"d  c #472F30",
"f  c #45313B",
"g  c #533938",
"h  c #49322A",
"j  c #6B3F21",
"k  c #662834",
"l  c #663A36",
"z  c #753C3C",
"x  c #7A3A3A",
"c  c #37403F",
"v  c #7B491F",
"b  c #664417",
"n  c #4E4539",
"m  c #794826",
"M  c #6B4234",
"N  c #6E4A30",
"B  c #7A543A",
"V  c #714C31",
"C  c #1E384A",
"Z  c #352C41",
"A  c #3B2F42",
"S  c #3A3A46",
"D  c #23384A",
"F  c #422F41",
"G  c #433040",
"H  c #4C3341",
"J  c #583742",
"K  c #683C43",
"L  c #793E41",
"P  c #2D4040",
"I  c #334343",
"U  c #3B4142",
"Y  c #374B46",
"T  c #3C4156",
"R  c #37576D",
"E  c #4A4841",
"W  c #4A4754",
"Q  c #5E5953",
"!  c #425055",
"~  c #7B4043",
"^  c #7C4448",
"/  c #6C5552",
"(  c #5A5264",
")  c #64566A",
"_  c #765E73",
"`  c #746A79",
"'  c #78717C",
"]  c #6F647A",
"[  c #851533",
"{  c #992B2B",
"}  c #853B3B",
"|  c #922E3B",
" . c #AA3C2F",
".. c #CB3838",
"X. c #D23939",
"o. c #A57C05",
"O. c #844E26",
"+. c #854D29",
"@. c #8B4E22",
"#. c #8B5125",
"$. c #8A5129",
"%. c #845124",
"&. c #945D25",
"*. c #935828",
"=. c #80593C",
"-. c #AB433A",
";. c #B1443E",
":. c #996322",
">. c #892C43",
",. c #922A43",
"<. c #993A43",
"1. c #86354B",
"2. c #A13F47",
"3. c #C03F43",
"4. c #834243",
"5. c #9E4A46",
"6. c #924C4B",
"7. c #925851",
"8. c #AD4E47",
"9. c #A74C47",
"0. c #AF5048",
"q. c #B15047",
"w. c #B25148",
"e. c #BA5449",
"r. c #B14F46",
"t. c #966B4B",
"y. c #976558",
"u. c #8F684D",
"i. c #A87956",
"p. c #B57A5C",
"a. c #9D5A6E",
"s. c #9B6D65",
"d. c #8F686C",
"f. c #AC6671",
"g. c #C65E53",
"h. c #DA5F4E",
"j. c #D56659",
"k. c #D96759",
"l. c #DB6A5C",
"z. c #D76557",
"x. c #CD6155",
"c. c #E56E5E",
"v. c #E96B58",
"b. c #E9705F",
"n. c #E66F60",
"m. c #E77060",
"M. c #E97060",
"N. c #F17462",
"B. c #E77D72",
"V. c #AE8208",
"C. c #BC8E04",
"Z. c #B78908",
"A. c #BE9104",
"S. c #C49403",
"D. c #CB9B02",
"F. c #C4930B",
"G. c #D4A206",
"H. c #BC8E5E",
"J. c #B88566",
"K. c #B0866F",
"L. c #C28C6C",
"P. c #CA9979",
"I. c #D69E75",
"U. c #D79F78",
"Y. c #DAA27A",
"T. c #DCA277",
"R. c #C2A061",
"E. c #E2A77B",
"W. c #3C6583",
"Q. c #386F95",
"!. c #48698B",
"~. c #446E90",
"^. c #7B6D83",
"/. c #7E7A8A",
"(. c #706E8B",
"). c #8E7890",
"_. c #A7778B",
"`. c #7996B3",
"'. c #8B839C",
"]. c #87878B",
"[. c #AF928F",
"{. c #ACA08E",
"}. c #AA8FAA",
"|. c #B9A8BE",
" X c #C69A9D",
".X c #C5948D",
"XX c #D8AB8E",
"oX c #E7AC81",
"OX c #E8B898",
"+X c #F3B785",
"@X c #C995A1",
"#X c #D4B2A9",
"$X c #E4ABAA",
"%X c #EA8E88",
"&X c #EEC4A9",
"*X c #EACBB3",
"=X c #F7D3BA",
"-X c #F1CBB2",
";X c #A39DC2",
":X c #B8ACC6",
">X c #B8B5DB",
",X c #BABFE3",
"<X c #C1B7DA",
"1X c #D1B9C3",
"2X c #BAC4E9",
"3X c #CFC3D7",
"4X c #F9DBC3",
"5X c #F3DBCA",
"6X c #D9D6E9",
"7X c #D3D6F1",
"8X c #EAECFB",
"9X c #E4E3F2",
"0X c #EAF8FE",
"qX c #F4F7FB",
"wX c #EDEAEF",
/* pixels */
"                                                                                                    ",
"                                                                                                    ",
"                                    G G G G G G G G G G G G G                                       ",
"                                  G G H H H H H H H H H H H H                                       ",
"                                1 ~ 8.g.c.l.l.l.l.l.l.l.l.l.l.J 2 A 2                               ",
"                                G 4.e.z.N.M.M.M.M.M.M.M.M.M.b.K J H H                               ",
"                            1 L 9.g.c.c.c.n.n.n.n.n.n.n.n.c.c.l.l.8.5.G 2                           ",
"                            1 ~ e.x.M.c.M.M.M.M.M.M.M.M.M.M.M.M.c.e.9.G 2                           ",
"                            3 6.M.c.c.c.M.M.M.M.M.M.M.M.M.M.M.n.c.b.j.G 1                           ",
"                            W 7.N.n.b.m.M.M.M.M.M.M.M.M.M.M.M.M.m.M.l.J H                           ",
"                        < ^.2X@Xv.n.b.M.M.M.M.M.M.M.M.M.M.M.M.M.M.M.c.w.5.G 2                       ",
"                      W S ^.:X@X%XB.c.m.M.M.M.M.M.M.M.M.M.M.M.M.M.M.c.e.5.F 2                       ",
"                    < T Q._ ;. X0X$Xv.M.c.M.M.M.M.M.M.M.M.M.M.c.m.M.c.w.5.G 2                       ",
"                    /./.`.).-.@X0X$Xh.c.M.c.n.m.m.m.m.m.m.m.c.c.c.l.j.w.5.F 2                       ",
"                < ' wXwXwX1X . XqX X-.j.N.M.M.M.M.M.M.M.M.M.M.M.M.w.8.w.5.s 2                       ",
"                < ` 8X9X8X3Xf. X6X.X-.g.l.k.k.k.k.k.k.k.k.k.k.k.j.e.0.q.5.s 2                       ",
"                < ` qX8X8X6X2X}. .8.w.8.8.8.8.8.8.8.8.8.8.8.8.8.8.8.8.q.5.s 2                       ",
"                < ] 6X6X8X3X}._.r.w.8.w.0.w.0.0.w.w.w.w.0.0.0.w.w.w.8.q.5.s 2                       ",
"                < ) <X3XqX1X8 | e.q.8.w.w.w.w.0.w.w.w.w.w.w.w.w.w.0.8.e.9.F A                       ",
"                < ) ).}.6X:X_.a.| 9.0.8.8.8.8.8.8.8.8.8.8.8.8.8.8.8.8.4.L d d                       ",
"                    3 ] <X>X7X}.[ 2.e.e.e.e.e.e.e.e.e.e.e.e.e.e.e.e.8.Z < r r                       ",
"                      ) '.).'._ k L 4.4.4.4.4.4.4.4.4.4.4.4.4.4.4.4.~ M l w w                       ",
"                        3 3 3 6 Y 6 3 1 Z Z Z Z Z Z Z Z Z Z Z Z Z Z s *.#.w 0                       ",
"                        K K K f > W /./ l g d l M a d l M M M M M M M j y 0                         ",
"                        ~ z L p . ( ;Xd.x l 0 v @.e 9 O.*.#.#.#.#.*.#.r r                           ",
"                        z 7.L.^ . ' 6X[.p.B q t.J.i.i.N y O.+.+.O.j t & &                           ",
"                        l y.+Xu.. ].qX#XE.u.- J.oXY.Y.N q O.$.$.O.r q . .                           ",
"                        J.P.&XXX[.#X5X*X&XP.i.P.Y.I.I.N 0 O.O.O.O.r 0                               ",
"                        T.OX4X4X4X=X-X=X4XOXE.Y.I.Y.Y.N q O.$.$.$.r 0                               ",
"                          K.s..X=X-X=XOXXXY.I.I.Y.t.B m m 9 - - -                                   ",
"                            k K.4X=X=XOXI.Y.U.Y.oXV 9 O.*.; @ X X                                   ",
"                              y.s.s.s.y.7.J.E.t.B a r t y o.V.e 9                                   ",
"                                z z z L K J.oX=.q r w r r S.G.b r                                   ",
"                                  1.[ _.:X|.<XH.C.:.m V.C.S.S.C.Z.t r                               ",
"                                  >.[ }.>X:X>XR.D.:.+.C.D.S.S.D.S.t 0                               ",
"                                P } ..^ ! W ! E n : O v &.S.D.:.#.@ X                               ",
"                                P } X.x 5 6 4 5 U # . b +.Z.F.&.%.o .                               ",
"                                P } ..| >.u o 4 U 5 5 = & O.*.F.S.O .                               ",
"                                U L 3.<.1.u X E Q Q Q # o %.&.F.C.O .                               ",
"                                z ( !.!.!.D $ {.5X*X*Xn @ S.G.&.$.o .                               ",
"                              z } ) W.W.~.D $ {.=X&X-Xn O V.A.%.m $ %                               ",
"                            I x ..x 4 R Q.C + J.oXE.E.h . O O X + 6 c                               ",
"                            4 x ..} g ( (.S $ u.L.J.J., % * * * = 6 5                               ",
"                            . 8 X.......X.x I # . . . 6 U >.,.,.>.S c                               ",
"                            . 7 { { { { { l I # . X . 6 U k i i k 5 U                               ",
"                                . . . . .                 . . . .                                   ",
"                                . . . . .                 . . . .                                   ",
"                                                                                                    ",
"                                                                                                    ",
"                                                                                                    "
};
